<svg width="236" height="192" viewBox="0 0 236 192" fill="none" xmlns="http://www.w3.org/2000/svg">
<g clip-path="url(#clip0_59_572)">
<path d="M117.6 170.2C157.884 170.2 190.54 137.544 190.54 97.2603C190.54 56.9767 157.884 24.3203 117.6 24.3203C77.3163 24.3203 44.66 56.9767 44.66 97.2603C44.66 137.544 77.3163 170.2 117.6 170.2Z" fill="#3D3D3C"/>
<path d="M117.6 179C72.53 179 35.87 142.33 35.87 97.2703C35.87 52.2103 72.53 15.5303 117.6 15.5303C162.67 15.5303 199.33 52.2003 199.33 97.2603C199.33 142.32 162.66 178.99 117.6 178.99V179ZM117.6 18.8003C74.33 18.8003 39.13 54.0003 39.13 97.2703C39.13 140.54 74.33 175.74 117.6 175.74C160.87 175.74 196.07 140.54 196.07 97.2703C196.07 54.0003 160.87 18.7903 117.6 18.7903V18.8003Z" fill="#3D3D3C"/>
<path d="M122.39 154.129C123.77 153.979 124.01 153.279 124.2 152.489L125.4 152.359L126.63 163.709L124.85 163.899L123.91 155.239L122.53 155.389L122.39 154.119V154.129Z" fill="white"/>
<path d="M129.41 154.48C128.96 152.71 129.63 151.46 131.34 151.02C133.05 150.59 134.24 151.36 134.69 153.13L136.16 158.88C136.61 160.65 135.94 161.9 134.23 162.34C132.52 162.77 131.33 162 130.88 160.23L129.41 154.48ZM132.64 159.9C132.84 160.69 133.27 160.9 133.82 160.76C134.37 160.62 134.64 160.23 134.44 159.44L132.92 153.46C132.72 152.67 132.3 152.46 131.74 152.6C131.19 152.74 130.92 153.13 131.12 153.92L132.64 159.9Z" fill="white"/>
<path d="M137.3 152.27C136.6 150.58 137.09 149.25 138.72 148.57C140.35 147.9 141.64 148.5 142.34 150.19L144.61 155.68C145.31 157.37 144.82 158.7 143.19 159.38C141.56 160.05 140.27 159.45 139.57 157.76L137.3 152.27ZM141.27 157.18C141.58 157.93 142.03 158.08 142.56 157.87C143.09 157.66 143.3 157.23 142.99 156.47L140.64 150.77C140.33 150.02 139.88 149.87 139.35 150.08C138.82 150.29 138.61 150.72 138.92 151.48L141.27 157.18Z" fill="white"/>
<path d="M144.35 148.22C143.72 147.23 143.88 146.35 144.84 145.75C145.79 145.15 146.65 145.38 147.28 146.37L149.28 149.54C149.91 150.53 149.75 151.41 148.79 152.01C147.84 152.61 146.98 152.38 146.35 151.39L144.35 148.22ZM147.36 150.85C147.63 151.28 147.92 151.34 148.24 151.14C148.54 150.95 148.62 150.65 148.35 150.22L146.26 146.91C145.99 146.48 145.68 146.42 145.38 146.62C145.06 146.82 145 147.11 145.27 147.54L147.36 150.85ZM148.68 143.41L149.58 142.84L151.87 154.9L150.97 155.47L148.68 143.41ZM151.36 148.72C150.73 147.73 150.89 146.85 151.85 146.25C152.81 145.65 153.66 145.88 154.29 146.87L156.29 150.04C156.92 151.03 156.76 151.91 155.8 152.51C154.85 153.11 153.99 152.88 153.36 151.89L151.36 148.72ZM154.37 151.35C154.64 151.78 154.93 151.84 155.25 151.64C155.55 151.45 155.63 151.15 155.36 150.72L153.27 147.41C153 146.98 152.69 146.93 152.39 147.12C152.07 147.32 152.01 147.61 152.28 148.04L154.37 151.35Z" fill="white"/>
<path d="M159.041 107.231C164.549 84.341 150.458 61.3193 127.567 55.8111C104.677 50.3029 81.6551 64.394 76.1469 87.2845C70.6387 110.175 84.7299 133.197 107.62 138.705C130.511 144.213 153.533 130.122 159.041 107.231Z" fill="white"/>
<path d="M117.6 141.53C93.19 141.53 73.34 121.67 73.34 97.2698C73.34 72.8698 93.2 53.0098 117.6 53.0098C142 53.0098 161.86 72.8698 161.86 97.2698C161.86 121.67 142 141.53 117.6 141.53ZM117.6 56.2698C94.99 56.2698 76.6 74.6598 76.6 97.2698C76.6 119.88 94.99 138.27 117.6 138.27C140.21 138.27 158.6 119.88 158.6 97.2698C158.6 74.6598 140.21 56.2698 117.6 56.2698Z" fill="#3D3D3C"/>
<path d="M55.91 82.9C56.41 80.75 57.96 79.94 60.21 80.46L60.65 80.56L60.16 82.65L59.58 82.51C58.57 82.28 58.1 82.59 57.93 83.3C57.77 84 58.06 84.5 59.06 84.73C60.09 84.97 60.96 84.7 62.56 83.55C64.62 82.08 65.92 81.76 67.54 82.13C69.8 82.65 70.82 84.08 70.32 86.25C69.82 88.43 68.27 89.25 66.01 88.73L65.14 88.53L65.63 86.44L66.64 86.67C67.65 86.9 68.11 86.54 68.28 85.84C68.44 85.13 68.18 84.61 67.18 84.38C66.15 84.14 65.28 84.41 63.68 85.56C61.62 87.03 60.32 87.35 58.7 86.97C56.44 86.45 55.41 85.04 55.91 82.89V82.9Z" fill="white"/>
<path d="M74.99 73.3404L74.03 75.4204L71.48 74.6804L70.31 77.2204L72.53 78.6704L71.66 80.5704L59.48 72.4204L60.87 69.4004L74.99 73.3404ZM68.65 76.1404L69.57 74.1504L62.47 72.0704L62.45 72.1104L68.65 76.1404Z" fill="white"/>
<path d="M63.9301 63.78L67.9801 58.04L69.6701 59.23L68.3001 61.17L78.4301 68.31L77.1201 70.17L66.9901 63.03L65.6201 64.97L63.9301 63.78Z" fill="white"/>
<path d="M71.4 54.17L72.98 52.54L83.38 62.6L81.8 64.23L71.4 54.17Z" fill="white"/>
<path d="M79.6 46.5904C81.37 45.2604 83.07 45.6404 84.46 47.4904L84.73 47.8504L83.01 49.1404L82.65 48.6604C82.03 47.8304 81.46 47.7704 80.88 48.2004C80.3 48.6304 80.21 49.2004 80.83 50.0204C81.46 50.8604 82.3 51.2204 84.27 51.3604C86.8 51.5604 88 52.1504 88.99 53.4804C90.38 55.3304 90.25 57.0804 88.47 58.4304C86.69 59.7704 84.97 59.4104 83.57 57.5604L83.04 56.8504L84.76 55.5604L85.38 56.3904C86 57.2204 86.59 57.2404 87.17 56.8104C87.75 56.3804 87.89 55.8004 87.27 54.9804C86.64 54.1404 85.8 53.7804 83.83 53.6404C81.3 53.4404 80.1 52.8504 79.11 51.5204C77.72 49.6704 77.83 47.9304 79.6 46.6004V46.5904Z" fill="white"/>
<path d="M92.29 46.4705L94.93 45.1805L95.84 47.0405L93.2 48.3305L95.82 53.7005L93.78 54.7005L87.42 41.7005L92.82 39.0605L93.73 40.9205L90.37 42.5605L92.29 46.4805V46.4705Z" fill="white"/>
<path d="M108.76 49.2006L106.55 49.8006L105.49 47.3706L102.8 48.1006L103.1 50.7406L101.08 51.2806L99.56 36.7106L102.77 35.8506L108.77 49.2206L108.76 49.2006ZM102.56 46.1206L104.68 45.5506L101.74 38.7606H101.7L102.56 46.1206Z" fill="white"/>
<path d="M117.82 43.0702L117.93 44.9902C118.07 47.3002 116.99 48.6902 114.76 48.8202C112.53 48.9502 111.3 47.7002 111.17 45.3902L110.73 37.8802C110.6 35.5702 111.67 34.1802 113.9 34.0502C116.13 33.9202 117.36 35.1702 117.5 37.4802L117.58 38.8802L115.43 39.0002L115.34 37.4502C115.28 36.4202 114.8 36.0502 114.08 36.1002C113.36 36.1402 112.93 36.5602 112.99 37.5902L113.45 45.3902C113.51 46.4202 113.99 46.7702 114.71 46.7202C115.43 46.6702 115.86 46.2802 115.8 45.2502L115.68 43.1902L117.83 43.0602L117.82 43.0702Z" fill="white"/>
<path d="M128.56 44.1805L128.29 46.0805C127.97 48.3705 126.64 49.5205 124.43 49.2105C122.22 48.9005 121.26 47.4305 121.58 45.1405L122.62 37.6905C122.94 35.4005 124.27 34.2505 126.48 34.5605C128.69 34.8705 129.65 36.3405 129.33 38.6305L129.13 40.0205L127 39.7205L127.21 38.1805C127.35 37.1605 126.96 36.7105 126.24 36.6005C125.52 36.5005 125.02 36.8305 124.88 37.8505L123.8 45.5905C123.66 46.6105 124.06 47.0405 124.77 47.1405C125.48 47.2405 125.99 46.9305 126.13 45.9105L126.42 43.8605L128.55 44.1605L128.56 44.1805Z" fill="white"/>
<path d="M135.29 36.6104L137.46 37.2803L133.17 51.0904L131 50.4203L135.29 36.6104Z" fill="white"/>
<path d="M141.28 42.3504C142.32 40.2804 144 39.6504 146 40.6504C147.99 41.6504 148.49 43.3804 147.45 45.4504L144.07 52.1704C143.03 54.2404 141.35 54.8704 139.35 53.8704C137.36 52.8704 136.86 51.1404 137.9 49.0704L141.28 42.3504ZM139.87 50.2204C139.41 51.1404 139.64 51.7004 140.28 52.0204C140.93 52.3404 141.51 52.2004 141.97 51.2704L145.48 44.2904C145.94 43.3704 145.71 42.8104 145.07 42.4904C144.42 42.1604 143.84 42.3104 143.38 43.2404L139.87 50.2204ZM149.47 39.1604L146.56 40.2604L145.19 39.5704L147.48 38.1504L149.47 39.1504V39.1604Z" fill="white"/>
<path d="M153.39 50.1104L153.36 50.0804L146.81 58.2604L145.21 56.9804L154.26 45.6904L156.49 47.4704L152.87 55.6604L152.9 55.6904L158.32 48.9304L159.9 50.2004L150.85 61.4904L149.03 60.0304L153.41 50.1104H153.39Z" fill="white"/>
<path d="M117.6 134.86C96.87 134.86 80 117.99 80 97.2602C80 76.5302 96.87 59.6602 117.6 59.6602C138.33 59.6602 155.2 76.5302 155.2 97.2602C155.2 117.99 138.33 134.86 117.6 134.86ZM117.6 60.7502C97.47 60.7502 81.09 77.1302 81.09 97.2602C81.09 117.39 97.47 133.77 117.6 133.77C137.73 133.77 154.11 117.39 154.11 97.2602C154.11 77.1302 137.73 60.7502 117.6 60.7502Z" fill="#3D3D3C"/>
<path d="M117.6 131.23C136.361 131.23 151.57 116.021 151.57 97.26C151.57 78.4989 136.361 63.29 117.6 63.29C98.8389 63.29 83.63 78.4989 83.63 97.26C83.63 116.021 98.8389 131.23 117.6 131.23Z" fill="#3D3D3C"/>
<mask id="mask0_59_572" style="mask-type:luminance" maskUnits="userSpaceOnUse" x="83" y="63" width="69" height="69">
<path d="M117.6 131.23C136.361 131.23 151.57 116.021 151.57 97.26C151.57 78.4989 136.361 63.29 117.6 63.29C98.8389 63.29 83.63 78.4989 83.63 97.26C83.63 116.021 98.8389 131.23 117.6 131.23Z" fill="white"/>
</mask>
<g mask="url(#mask0_59_572)">
<path d="M108.131 35.282L107.361 36.0527L192.008 120.7L192.779 119.93L108.131 35.282Z" fill="white"/>
<path d="M104.398 39.0281L103.628 39.7988L188.275 124.447L189.046 123.676L104.398 39.0281Z" fill="white"/>
<path d="M100.651 42.7751L99.8806 43.5459L184.528 128.194L185.299 127.423L100.651 42.7751Z" fill="white"/>
<path d="M96.9014 46.5134L96.1306 47.2842L180.778 131.932L181.549 131.161L96.9014 46.5134Z" fill="white"/>
<path d="M93.1684 50.2605L92.3976 51.0312L177.045 135.679L177.816 134.908L93.1684 50.2605Z" fill="white"/>
<path d="M89.4284 53.9988L88.6577 54.7695L173.305 139.417L174.076 138.647L89.4284 53.9988Z" fill="white"/>
<path d="M85.6813 57.7459L84.9106 58.5166L169.558 143.164L170.329 142.394L85.6813 57.7459Z" fill="white"/>
<path d="M81.9313 61.4841L81.1606 62.2549L165.808 146.903L166.579 146.132L81.9313 61.4841Z" fill="white"/>
<path d="M78.1984 65.2312L77.4277 66.002L162.075 150.65L162.846 149.879L78.1984 65.2312Z" fill="white"/>
<path d="M74.4514 68.9773L73.6806 69.748L158.328 154.396L159.099 153.625L74.4514 68.9773Z" fill="white"/>
<path d="M70.7014 72.7166L69.9306 73.4873L154.578 158.135L155.349 157.364L70.7014 72.7166Z" fill="white"/>
<path d="M66.9684 76.4627L66.1976 77.2334L150.845 161.881L151.616 161.11L66.9684 76.4627Z" fill="white"/>
<path d="M63.2284 80.2019L62.4576 80.9727L147.105 165.62L147.876 164.85L63.2284 80.2019Z" fill="white"/>
<path d="M59.4813 83.948L58.7106 84.7188L143.358 169.366L144.129 168.596L59.4813 83.948Z" fill="white"/>
<path d="M55.7313 87.6873L54.9606 88.458L139.608 173.106L140.379 172.335L55.7313 87.6873Z" fill="white"/>
<path d="M51.9984 91.4334L51.2277 92.2041L135.875 176.852L136.646 176.081L51.9984 91.4334Z" fill="white"/>
</g>
<path d="M22.82 146.48C44.5 154.94 77.37 137.9 113.95 122.97C157.92 105.02 186.34 94.8498 212.38 102.45V67.4498C186.34 59.8498 157.93 70.0198 113.95 87.9699C77.37 102.9 44.5 119.95 22.82 111.48V146.48Z" fill="#FB923C"/>
<path d="M202.13 103.76C201.91 109.58 200.76 115.96 199 121.17C207.47 120.52 225.71 122.02 231.86 124.41L226.5 104.72L235.38 90.3801C231.82 88.9901 220.28 85.7601 216.14 85.6201V107.55C212.75 106.05 206.06 104.33 202.13 103.76Z" fill="#FB923C"/>
<path d="M32.6 109.23C31.79 103.79 31.42 98.6396 31.79 92.6896C24.44 92.9796 10.62 91.0696 3.52 88.8496L8.88 108.54L0 122.88C3.56 124.27 15.1 127.5 19.24 127.64V105.71C22.63 107.21 28.19 108.43 32.6 109.24V109.23Z" fill="#FB923C"/>
<path d="M57.1 128.03L60.59 126.86L62.28 131.9C63.13 134.44 62.35 136.32 59.9 137.14C57.45 137.96 55.69 136.93 54.84 134.39L52.07 126.13C51.22 123.59 52 121.71 54.45 120.89C56.9 120.07 58.66 121.1 59.51 123.64L60.03 125.18L57.67 125.97L57.1 124.27C56.72 123.14 56.08 122.87 55.28 123.14C54.49 123.41 54.13 124 54.51 125.14L57.38 133.72C57.76 134.85 58.4 135.1 59.19 134.83C59.98 134.56 60.35 133.99 59.97 132.85L58.99 129.92L57.86 130.3L57.1 128.03Z" fill="#3D3D3C"/>
<path d="M78 130.09L75.53 131.07L73.98 128.41L70.98 129.61L71.68 132.6L69.43 133.5L65.71 116.94L69.29 115.51L77.99 130.08L78 130.09ZM70.45 127.38L72.81 126.44L68.52 119.03L68.48 119.05L70.46 127.38H70.45Z" fill="#3D3D3C"/>
<path d="M88.55 125.679C88.25 125.339 88.06 125.129 87.53 123.879L86.51 121.449C85.91 120.019 85.2 119.689 84.1 120.149L83.26 120.499L85.9 126.789L83.47 127.809L76.99 112.359L80.65 110.819C83.17 109.759 84.74 110.479 85.74 112.859L86.25 114.069C86.92 115.659 86.83 116.889 85.97 117.849L85.99 117.889C87.42 117.889 88.3 118.869 88.97 120.479L89.97 122.859C90.28 123.609 90.54 124.149 91.02 124.619L88.55 125.659V125.679ZM80.34 113.549L82.33 118.289L83.28 117.889C84.18 117.509 84.57 116.879 84.05 115.649L83.41 114.129C82.95 113.029 82.37 112.699 81.51 113.059L80.34 113.549Z" fill="#3D3D3C"/>
<path d="M104.6 118.94L102.15 119.96L100.56 117.33L97.58 118.58L98.33 121.56L96.1 122.49L92.11 106L95.66 104.51L104.59 118.93L104.6 118.94ZM97.01 116.36L99.35 115.38L94.93 108.04L94.89 108.06L97.01 116.36Z" fill="#3D3D3C"/>
<path d="M107.78 104.53L107.74 104.55L112.3 115.8L110.1 116.69L103.81 101.16L106.87 99.9195L113.1 108.22L113.14 108.2L109.37 98.8995L111.54 98.0195L117.83 113.55L115.32 114.57L107.77 104.53H107.78Z" fill="#3D3D3C"/>
<path d="M117.09 95.77L124.65 92.75L125.54 94.97L122.98 95.99L128.31 109.33L125.86 110.31L120.53 96.97L117.97 97.99L117.08 95.77H117.09Z" fill="#3D3D3C"/>
<path d="M130.31 90.5496L132.77 89.5996L138.81 105.23L136.35 106.18L130.32 90.5496H130.31Z" fill="#3D3D3C"/>
<path d="M146.16 84.6494L146.95 86.8594L146.31 99.8594L151.02 98.1694L151.83 100.419L144.58 103.029L143.79 100.819L144.43 87.8194L139.95 89.4294L139.14 87.1794L146.17 84.6494H146.16Z" fill="#3D3D3C"/>
<path d="M165.81 96.0097L163.26 96.7697L161.95 93.9897L158.85 94.9197L159.29 97.9597L156.97 98.6497L154.73 81.8297L158.42 80.7197L165.8 96.0097H165.81ZM158.53 92.6397L160.96 91.9097L157.34 84.1497H157.29L158.53 92.6397Z" fill="#3D3D3C"/>
<path d="M168.07 78.2094L172.16 77.4194C174.74 76.9194 176.29 78.1094 176.8 80.7394L178.4 89.0594C178.91 91.6894 177.91 93.3694 175.33 93.8694L171.24 94.6594L168.07 78.2094ZM171.11 80.0594L173.38 91.8094L174.84 91.5294C175.66 91.3694 176.07 90.8494 175.85 89.6794L174.2 81.1294C173.97 79.9594 173.4 79.6294 172.58 79.7894L171.12 80.0694L171.11 80.0594Z" fill="#3D3D3C"/>
<path d="M193.53 91.9697L190.88 92.1096L190.27 89.0996L187.04 89.2696L186.74 92.3297L184.33 92.4496L186.15 75.5896L190 75.3896L193.53 91.9797V91.9697ZM187.26 86.9697L189.79 86.8396L188.12 78.4397H188.07L187.26 86.9697Z" fill="#3D3D3C"/>
<path d="M88.73 0L92.57 4.35L98.34 3.66L95.38 8.65L97.82 13.92L92.16 12.66L87.91 16.61L87.36 10.83L82.29 8L87.61 5.7L88.73 0Z" fill="#FB923C"/>
<path d="M74.96 13.8896L77.21 15.2996L79.64 14.2496L79 16.8196L80.75 18.8096L78.1 18.9996L76.75 21.2796L75.76 18.8196L73.17 18.2396L75.21 16.5296L74.96 13.8896Z" fill="#FB923C"/>
<path d="M107.67 4.2998L109.06 6.5698L111.71 6.7098L109.99 8.7298L110.67 11.2898L108.22 10.2798L105.99 11.7198L106.2 9.0698L104.13 7.3998L106.72 6.7798L107.67 4.2998Z" fill="#FB923C"/>
<path d="M153.28 191.87L149.07 187.88L143.39 189.08L145.89 183.84L142.99 178.81L148.75 179.57L152.63 175.26L153.69 180.97L158.99 183.33L153.89 186.1L153.28 191.87Z" fill="#FB923C"/>
<path d="M166.31 178.15L164.13 176.64L161.65 177.58L162.41 175.03L160.75 172.96L163.4 172.9L164.86 170.68L165.74 173.19L168.3 173.89L166.19 175.5L166.31 178.15Z" fill="#FB923C"/>
<path d="M133.17 190.15L131.65 187.97L128.99 188L130.59 185.87L129.75 183.36L132.26 184.22L134.4 182.64L134.35 185.3L136.51 186.84L133.97 187.62L133.17 190.15Z" fill="#FB923C"/>
</g>
<defs>
<clipPath id="clip0_59_572">
<rect width="235.37" height="191.87" fill="white"/>
</clipPath>
</defs>
</svg>
