<?xml version="1.0" encoding="UTF-8"?>
<svg id="Layer_2" data-name="Layer 2" xmlns="http://www.w3.org/2000/svg" viewBox="0 0 88.14 17.63">
  <g id="Capa_1" data-name="Capa 1">
    <g id="DqwD6W">
      <g>
        <path d="m63.14,11.77c-1.8,2.62-5.5,3.38-8.28,1.12-.11.17-.06.35-.06.51,0,1.25-.01,2.51,0,3.76,0,.33-.08.45-.43.45-1.33,0-1.33.02-1.33-1.3,0-2.61-.04-5.21.04-7.81.08-2.35,1.63-4.31,3.75-4.95,2.29-.7,4.55.02,6.05,1.92.07.09.14.17.24.29.53-.71,1.13-1.31,1.88-1.75,2.32-1.34,5.4-.76,7.01,1.37.28.37.39.3.64-.01,1.42-1.79,3.67-2.48,5.91-1.85,2,.57,3.57,2.47,3.83,4.61.42,3.54-2.68,6.54-6.22,6.03-1.49-.22-2.68-.93-3.59-2.12-.18-.23-.27-.31-.47-.03-2.11,2.94-6.7,2.97-8.86-.12-.03-.04-.06-.07-.12-.14Zm17.55-2.98c-.01-2.08-1.68-3.78-3.72-3.78-2.09,0-3.76,1.71-3.75,3.85,0,2,1.74,3.67,3.79,3.65,1.99-.01,3.69-1.74,3.68-3.72Zm-12.99,3.72c2.04.02,3.77-1.68,3.8-3.73.03-1.99-1.72-3.76-3.72-3.77-2.03-.01-3.74,1.66-3.78,3.69-.04,2.05,1.65,3.79,3.7,3.81Zm-5.44-3.84c-.05-2.01-1.8-3.71-3.76-3.66-2.07.06-3.76,1.78-3.72,3.8.05,2.1,1.8,3.75,3.92,3.7,1.98-.06,3.61-1.82,3.56-3.84Z"/>
        <path d="m43.89,9.12c-1.38,0-2.77,0-4.15,0-.35,0-.43.08-.35.45.34,1.49,1.61,2.75,3.03,2.95,1.78.25,3.34-.54,4.1-2.12.15-.32.31-.45.65-.41.18.02.36,0,.54,0q.72,0,.46.69c-.8,2.18-2.95,3.57-5.28,3.49-2.66-.09-4.9-2.17-5.17-4.85-.24-2.42,1.18-4.87,3.77-5.71,3.38-1.1,7.03,1.54,7.02,5.07,0,.37-.11.47-.47.46-1.38-.02-2.77,0-4.15,0Zm-.79-1.59h0c1.04,0,2.08-.02,3.12.01.44.01.45-.14.28-.46-.74-1.35-1.88-2.12-3.42-2.11-1.54.02-2.68.78-3.4,2.15-.16.3-.14.42.24.42,1.06-.02,2.12,0,3.17,0Z"/>
        <path d="m33.11,11.91c.42-1.04.79-1.97,1.16-2.9.65-1.64,1.31-3.28,1.95-4.92.09-.22.2-.3.43-.3.42,0,.85.01,1.27,0,.34-.01.38.1.26.4-1.11,2.77-2.2,5.54-3.3,8.3-.18.45-.37.9-.53,1.36-.08.22-.2.3-.43.3-.54-.01-1.07-.01-1.61,0-.24,0-.32-.09-.41-.31-1.27-3.21-2.54-6.41-3.82-9.61-.14-.36-.05-.47.32-.43.21.02.42,0,.63,0,.9,0,.88,0,1.22.86.93,2.38,1.88,4.75,2.88,7.26Z"/>
        <path d="m18.5,6.11c0-1.82.01-3.65,0-5.47,0-.36.09-.51.46-.46.41.06.97-.18,1.21.11.2.24.07.78.07,1.18,0,3.24,0,6.48,0,9.72,0,.96.29,1.24,1.25,1.25,1.07,0,2.15.01,3.22,0,.32,0,.45.06.45.42,0,1.28.01,1.28-1.25,1.28-.94,0-1.89,0-2.83,0-1.57,0-2.55-.95-2.57-2.54-.02-1.82,0-3.65,0-5.47h0Z"/>
        <path d="m.01,6.68C.01,4.71.02,2.74,0,.78c0-.34.09-.41.4-.41.91,0,.9-.02.9.9,0,3.42,0,6.83,0,10.25,0,.97.23,1.2,1.2,1.2,1.92,0,3.84,0,5.76-.01.37,0,.5.08.49.48-.02.85,0,.85-.85.85-2.08,0-4.17,0-6.25,0-1.12,0-1.65-.53-1.65-1.64,0-1.9,0-3.81,0-5.71h0Z"/>
        <path d="m15.54,7.74c0,1.92-.01,3.84,0,5.76,0,.4-.1.53-.51.51-.79-.03-.79,0-.79-.81,0-3.49,0-6.97,0-10.46,0-.83-.24-1.07-1.07-1.07-1.97,0-3.94-.01-5.91,0-.39,0-.49-.1-.48-.49.04-.8.01-.8.84-.8,2.08,0,4.17,0,6.25,0,1.13,0,1.66.54,1.66,1.68,0,1.89,0,3.78,0,5.67Z"/>
        <path d="m13.84,8.27c0,1.76,0,3.51,0,5.27,0,.37-.08.52-.48.5-.98-.04-.83.12-.84-.82,0-2.96,0-5.92,0-8.88,0-.77-.17-.94-.95-.95-1.43,0-2.86-.01-4.3,0-.36,0-.53-.07-.5-.48.06-.87-.21-.86.87-.86,1.69,0,3.38,0,5.08,0,.87,0,1.1.23,1.11,1.09,0,1.71,0,3.42,0,5.13h0Z"/>
        <path d="m83.15,7.12c0-2.18,0-4.36,0-6.55,0-.34.09-.44.43-.44,1.26.01,1.27,0,1.26,1.27,0,4.1-.01,8.21,0,12.31,0,.33-.09.41-.4.41-1.28,0-1.28.02-1.28-1.24,0-1.92,0-3.84,0-5.76Z"/>
        <path d="m1.72,6.1c0-1.76,0-3.52,0-5.28,0-.34.09-.44.43-.44.88,0,.88,0,.88.87,0,2.95,0,5.9,0,8.84,0,.8.1.9.9.9,1.43,0,2.87.01,4.3,0,.37,0,.51.08.5.48-.03.83,0,.83-.81.83-1.69,0-3.39,0-5.08,0-.93,0-1.11-.19-1.11-1.12,0-1.69,0-3.39,0-5.08h0Z"/>
        <path d="m49.27,9.93c0-1.19,0-2.38,0-3.57,0-1.56.97-2.53,2.53-2.53.37,0,.75.04,1.12,0,.37-.03.47.08.47.45,0,1.24,0,1.24-1.24,1.24-.83,0-1.18.35-1.18,1.2,0,2.33-.01,4.66,0,6.98,0,.35-.07.48-.45.48-1.25,0-1.25.01-1.25-1.23,0-1.01,0-2.02,0-3.03h0Z"/>
        <path d="m4.74,4.74c0,1.28,0,2.57,0,3.85,0,.53.13.66.66.66.99,0,1.98,0,2.98,0,.28,0,.39.06.39.38-.01,1,0,1-1.01,1-1.17,0-2.34,0-3.51,0-.64,0-.86-.22-.87-.83,0-3.01,0-6.02,0-9.02,0-.35.12-.44.45-.43,1.1.03.91-.13.92.89.01,1.17,0,2.34,0,3.51h0Z"/>
        <path d="m12.17,9.07c0,1.5-.01,2.99,0,4.49,0,.38-.08.52-.48.5-1.03-.04-.88.14-.88-.87,0-2.44,0-4.88,0-7.32,0-.63-.08-.71-.7-.71-.96,0-1.92-.02-2.88,0-.35,0-.49-.07-.47-.45.04-.94.02-.94.96-.94,1.17,0,2.34,0,3.51,0,.73,0,.93.2.93.91,0,1.46,0,2.93,0,4.39Z"/>
        <path d="m25.7,8.93c0-1.58,0-3.16,0-4.73,0-.28.04-.39.36-.39,1.31,0,1.31,0,1.31,1.32,0,2.85,0,5.69,0,8.54,0,.36-.08.47-.45.46-1.22,0-1.22,0-1.22-1.2,0-1.33,0-2.67,0-4Z"/>
        <path d="m10.46,9.96c0,1.2-.02,2.41.01,3.61,0,.38-.11.46-.47.46-.87-.01-.87,0-.87-.88,0-1.9,0-3.8,0-5.71,0-.57-.07-.64-.65-.64-.46,0-.91,0-1.37,0-.23,0-.3-.07-.32-.31-.06-.99-.07-.99.93-.99.67,0,1.33,0,2,0,.54,0,.73.2.73.74,0,1.24,0,2.47,0,3.71Z"/>
        <path d="m5.1,4.45c0-1.19.01-2.38,0-3.57,0-.36.06-.52.47-.51.82.02.82,0,.82.83,0,1.87,0,3.75,0,5.62,0,.7.07.77.79.77.41,0,.81.01,1.22,0,.25,0,.33.08.34.34.03.97.04.97-.93.97-.64,0-1.27.02-1.9-.01-.71-.03-.8-.15-.8-.86,0-1.19,0-2.38,0-3.57Z"/>
        <path d="m85.47,1.34c0-.78.52-1.33,1.29-1.34.84,0,1.39.53,1.39,1.34,0,.76-.56,1.32-1.32,1.33-.79,0-1.35-.54-1.35-1.33Zm2.06.78c.06-.11.12-.23.18-.34.21-.39.15-.76-.13-1.08-.26-.31-.59-.47-1-.36-.43.12-.72.4-.79.84-.05.3,0,.59.37.8,0-.36-.01-.65,0-.94,0-.16-.1-.41.17-.44.3-.03.63-.11.89.12.18.17.17.41.01.57-.16.17-.09.26.02.4.1.12.18.27.26.41-.28.03-.5-.06-.63-.33-.06-.13-.14-.31-.31-.22-.2.11.03.42-.2.59-.07.05.12.15.22.18.34.1.61-.13.91-.22Z"/>
        <path d="m25.67,1.02q0-.86.88-.86t.85.85-.94.91-.79-.9Z"/>
      </g>
    </g>
  </g>
</svg>