<?xml version="1.0" encoding="UTF-8"?>
<svg id="Layer_2" data-name="Layer 2" xmlns="http://www.w3.org/2000/svg" viewBox="0 0 60.55 16.34">
  <g id="Capa_1" data-name="Capa 1">
    <g id="LXu2WA">
      <g>
        <path d="m60.55,12.2c-.08.22-.07.45-.11.67-.36,1.8-1.71,2.74-3.14,3.03-.49.1-.98.14-1.48.14-1.64,0-3.27,0-4.91,0-.18,0-.27-.03-.25-.24.02-.35-.05-.32.34-.32q.59,0,.59-.58c0-4.56,0-9.13,0-13.69q0-.35-.37-.35c-.06,0-.11,0-.17,0-.41,0-.4,0-.39-.41,0-.14.05-.18.18-.17.03,0,.06,0,.09,0,1.29,0,2.59,0,3.88,0,.65,0,1.29.04,1.92.2,1.61.41,2.63,1.6,2.8,3.26.1,1.05-.07,2.02-.73,2.88-.31.41-.71.71-1.17.95-.07.04-.14.07-.21.11-.01,0-.01.02-.03.05.33.12.65.23.96.39,1.29.7,1.96,1.8,2.15,3.23,0,.06,0,.13.05.18v.68Zm-8.33-.43c0,1.16,0,2.32,0,3.48,0,.19.06.25.24.23.16-.01.33,0,.49,0,1.25-.02,2.5.07,3.75-.07.86-.1,1.64-.4,2.26-1.03.61-.62.89-1.38.93-2.23.08-1.52-.46-2.74-1.8-3.53-.74-.44-1.56-.54-2.4-.55-1.08,0-2.16,0-3.24,0-.18,0-.23.05-.23.23,0,1.16,0,2.32,0,3.48Zm0-7.6c0,1.04,0,2.07,0,3.11,0,.17.04.23.22.23.53-.01,1.07,0,1.6,0,.73,0,1.46.03,2.19-.08,1.17-.17,2.03-.77,2.47-1.89.24-.6.28-1.23.18-1.87-.15-1.03-.62-1.85-1.57-2.36-.64-.34-1.32-.44-2.01-.45-.95-.02-1.9,0-2.86-.01-.17,0-.23.04-.23.22,0,1.04,0,2.07,0,3.11Z"/>
        <path d="m29.48,0c.37.06.74.11,1.11.18,3.32.63,5.89,3.32,6.36,6.67.33,2.33-.13,4.48-1.58,6.37-1.3,1.68-3.02,2.65-5.11,2.99-.34.06-.69.09-1.03.13h-.68c-.36-.04-.72-.08-1.07-.13-3.25-.46-5.96-3-6.59-6.24-.51-2.61-.04-5.02,1.69-7.1,1.32-1.59,3.05-2.48,5.09-2.79.19-.03.4,0,.58-.08C28.66,0,29.07,0,29.48,0Zm6.91,8.18c0-.21.01-.43,0-.64-.01-.21-.04-.42-.08-.63-.29-1.78-1.08-3.3-2.45-4.48-1.8-1.55-3.9-2.1-6.23-1.75-2.24.34-3.98,1.49-5.19,3.41-1.01,1.61-1.31,3.39-1.04,5.26.27,1.88,1.12,3.45,2.58,4.66,1.63,1.36,3.53,1.9,5.63,1.71,1.77-.16,3.31-.85,4.57-2.1,1.51-1.49,2.2-3.32,2.21-5.43Z"/>
        <path d="m0,.26c.48,0,.95.01,1.43.01.29,0,.29,0,.29.29,0,4.86,0,9.71,0,14.57,0,.4-.04.36.35.36,1.83,0,3.65,0,5.48,0,.21,0,.29-.05.27-.27-.02-.18,0-.37,0-.55,0-.12.03-.16.16-.16.42-.02.42-.02.42.39,0,.32,0,.64,0,.96,0,.16-.05.2-.21.2-1.17,0-2.33,0-3.5,0-1.56,0-3.13,0-4.69,0v-.55c.26,0,.51,0,.77,0,.36,0,.31.02.31-.3,0-4.68,0-9.35,0-14.03,0-.04,0-.09,0-.13.01-.12-.03-.17-.16-.17-.31.01-.61,0-.92,0V.26Z"/>
      </g>
    </g>
  </g>
</svg>