<?xml version="1.0" encoding="UTF-8"?>
<svg id="Layer_2" data-name="Layer 2" xmlns="http://www.w3.org/2000/svg" viewBox="0 0 66.31 51.53">
  <defs>
    <style>
      .cls-1 {
        fill: #ff7f15;
      }
    </style>
  </defs>
  <g id="Capa_1" data-name="Capa 1">
    <g id="BEapa5.tif">
      <g>
        <path class="cls-1" d="m0,27.09c.23-.65.48-1.3,1-1.78,1.05-.97,2.25-1.22,3.56-.67,1.27.54,1.94,1.56,2,2.94.04.92,0,1.85.02,2.77,0,.25-.09.32-.33.32-.62-.01-1.24-.01-1.86,0-.25,0-.32-.08-.32-.32.01-.85,0-1.7,0-2.56,0-.36-.05-.72-.28-1.03-.32-.42-.78-.41-1.06.04-.18.29-.24.62-.23.95,0,.84-.01,1.68,0,2.51,0,.29-.07.41-.38.4-.71-.03-1.41-.02-2.12-.03v-3.56Z"/>
        <path class="cls-1" d="m59.4,24.83c-.22-.19-.42-.37-.63-.54-.17-.13-.08-.27-.05-.43.36-1.82.14-3.51-1.11-4.97-1.93-2.26-5.52-2.59-7.85-.63-2.46,2.07-5.23,2.55-8.24,1.73-1.94-.52-3.2-1.91-3.98-3.71-.77-1.77-.41-3.44.63-5.01.55-.83,1.16-1.62,1.51-2.57.83-2.25.07-6.18-3.47-7.4-1.92-.66-3.79-.61-5.53.5-.89.57-1.49,1.45-2.1,2.29-1.58,2.18-3.65,3.51-6.33,4.03-2.3.45-4.21,2.26-4.56,5.05-.19,1.48.34,2.76,1.05,3.98,1.12,1.94,1.42,4,.93,6.18-.04.17-.1.33-.15.49-.05,0-.07-.01-.1-.02-.62-.2-.74-.54-.61-1.22.37-1.88-.09-3.63-1.07-5.26-.53-.88-.92-1.84-1-2.88-.2-2.48.67-4.5,2.63-6.03.86-.67,1.82-1.11,2.9-1.29,2.35-.4,4.13-1.68,5.51-3.58.61-.84,1.22-1.69,2.06-2.33.99-.76,2.11-1.15,3.36-1.21,1.59-.08,3.11.1,4.5.94,1.87,1.12,2.83,2.81,3.17,4.92.34,2.11-.39,3.88-1.62,5.53-.41.56-.77,1.15-.97,1.82-.51,1.72.12,3.11,1.22,4.37,1.33,1.52,3.09,1.88,4.99,1.81,1.73-.07,3.23-.71,4.58-1.82,2.95-2.45,7.31-1.98,9.54,1.03,1.37,1.84,1.54,3.9.88,6.05-.02.05-.05.1-.09.16Z"/>
        <path class="cls-1" d="m8.92,31.63c-.66.53-1.19,1.02-1.53,1.66-1.05,1.99-.97,3.99.28,5.83,1.98,2.92,5.99,3.84,8.96,1.08,2.47-2.3,5.35-3.39,8.69-3.35,2.64.03,5.1.65,7.35,2.09,2.16,1.38,3.32,3.37,3.68,5.85.17,1.14.39,2.26,1.06,3.21,1.2,1.71,2.9,2.53,4.96,2.55,3.13.03,5.4-2.13,5.91-4.96.37-2.01-.42-3.71-1.76-5.17-.77-.83-1.46-1.71-1.92-2.76-.81-1.85-.49-3.55.69-5.13.34-.45.73-.86,1.11-1.27.22-.23.38-.27.64-.07.48.36.49.34.05.76-.87.83-1.62,1.75-1.88,2.95-.32,1.46.31,2.68,1.14,3.82.55.76,1.25,1.39,1.78,2.18,3.03,4.49-.11,10.03-4.88,10.58-3.72.43-7.03-1.92-7.72-5.59-.19-1.01-.33-2.02-.7-2.98-.66-1.7-1.95-2.8-3.49-3.64-2.39-1.3-4.96-1.61-7.64-1.37-2.51.22-4.58,1.32-6.41,3.01-1.88,1.73-4.12,2.36-6.58,1.57-2.56-.83-4.33-2.55-4.83-5.28-.33-1.77-.08-3.47,1.07-4.97.34-.44.69-.7,1.26-.61.2.03.4,0,.73,0Z"/>
        <path class="cls-1" d="m45.8,25.34c-.04.84.08,1.88-.07,2.92-.22,1.53-1.57,2.68-3.18,2.7-1.53.03-2.93-1.08-3.23-2.55-.47-2.32,1.26-4.25,3.61-4.02.28.03.38-.02.37-.32-.02-.52,0-1.04,0-1.56,0-.79.5-1.33,1.22-1.34.74-.01,1.27.53,1.28,1.33.01.88,0,1.76,0,2.84Zm-4.08,2.28c0,.51.07.83.24,1.14.29.53.77.55,1.06.02.4-.74.37-1.5-.02-2.23-.24-.46-.71-.47-.99-.03-.22.35-.31.74-.29,1.09Z"/>
        <path class="cls-1" d="m19.36,28.87c0,.5,0,1.01,0,1.51,0,.23-.08.3-.3.29-.64-.01-1.27-.01-1.91,0-.25,0-.32-.09-.31-.33,0-1.56,0-3.12,0-4.68,0-.78.54-1.33,1.25-1.33.71,0,1.23.56,1.25,1.33,0,.35,0,.71.09,1.09.32-.57.65-1.14.96-1.71.37-.67,1.06-.93,1.67-.63.66.32.91,1.05.56,1.76-.24.49-.51.97-.8,1.44-.14.23-.12.4.03.62.38.54.75,1.1,1.11,1.65.28.44.11.75-.41.77-.01,0-.03,0-.04,0-.62-.03-1.33.21-1.82-.09-.47-.29-.71-.95-1.05-1.45-.06-.09-.13-.18-.2-.28-.03,0-.06.02-.08.02Z"/>
        <path class="cls-1" d="m50.58,28.01c-.54,0-1.07,0-1.6,0-.26,0-.35.07-.24.33.03.07.04.14.07.21.12.25.25.51.56.55.33.05.57-.16.7-.41.15-.3.36-.36.66-.35.49.02.98.01,1.47,0,.24,0,.3.07.25.31-.26,1.1-.94,1.81-1.99,2.16-1.62.54-3.37-.25-4.05-1.79-.7-1.58-.12-3.39,1.39-4.23,1.06-.59,2.16-.58,3.22.01,1.07.6,1.52,1.56,1.55,2.77,0,.36-.11.49-.48.46-.5-.03-1.01,0-1.52,0Zm-1.18-.93h0c.14,0,.29-.02.43,0,.29.03.32-.12.23-.34-.07-.17-.16-.34-.31-.46-.2-.17-.41-.19-.63-.03-.25.18-.42.47-.38.74.03.23.34.05.52.1.04.01.09,0,.13,0Z"/>
        <path class="cls-1" d="m27.19,28.01c-.54,0-1.07.01-1.6,0-.29,0-.32.11-.24.34.12.32.23.69.64.75.39.06.61-.22.77-.52.1-.18.22-.24.41-.23.51,0,1.01.02,1.52,0,.38-.02.46.12.35.45-.34,1.1-1.07,1.8-2.18,2.07-1.67.4-3.28-.44-3.91-2.01-.6-1.51.04-3.29,1.52-4.09,1.12-.6,2.25-.56,3.33.13,1.02.65,1.42,1.62,1.37,2.81-.01.24-.09.33-.33.32-.55-.01-1.1,0-1.65,0Zm-1.16-.93s0,0,0,0c.17,0,.35,0,.52,0,.13,0,.2-.06.16-.18-.09-.27-.18-.54-.47-.69-.23-.13-.42-.03-.59.12-.2.18-.34.44-.29.68.04.19.32.05.5.08.06,0,.11,0,.17,0Z"/>
        <path class="cls-1" d="m35.64,24.37c1.83,0,3.27,1.49,3.25,3.34-.02,1.83-1.46,3.28-3.27,3.28-1.82,0-3.29-1.49-3.29-3.32,0-1.84,1.48-3.3,3.31-3.3Zm-.79,3.3c.01.42.05.84.31,1.19.28.39.62.4.92.02.45-.56.44-1.89-.02-2.44-.28-.33-.63-.32-.9.04-.27.36-.29.77-.31,1.19Z"/>
        <path class="cls-1" d="m59.45,27.67c0,1.84-1.46,3.32-3.29,3.32-1.81,0-3.26-1.45-3.28-3.28-.02-1.83,1.45-3.33,3.27-3.34,1.84,0,3.29,1.45,3.3,3.3Zm-2.5.02c.01-.44-.06-.85-.31-1.2-.26-.38-.65-.38-.93-.02-.43.55-.44,1.81-.02,2.38.32.43.72.41,1-.05.21-.34.28-.72.27-1.11Z"/>
        <path class="cls-1" d="m66.29,28.76c0,.53,0,1.07,0,1.6,0,.22-.05.31-.29.3-.62-.01-1.24-.01-1.86,0-.25,0-.32-.08-.32-.32.01-.84,0-1.67,0-2.51,0-.37-.02-.75-.26-1.07-.34-.46-.84-.42-1.11.08-.17.31-.22.65-.22,1,0,.81-.01,1.62,0,2.43,0,.28-.05.42-.37.4-.61-.02-1.21-.01-1.82,0-.2,0-.28-.06-.28-.27.01-1.02-.03-2.05.02-3.07.09-1.6,1.47-2.88,3.13-2.96,1.56-.08,3.09,1.08,3.33,2.59.09.59.02,1.21.02,1.82,0,0,.01,0,.02,0Z"/>
        <path class="cls-1" d="m15.18,27.36c-.12,0-.23,0-.35,0-.52.04-.99.07-1.08-.65-.04-.28-.26-.53-.61-.51-.33.02-.47.26-.57.52-.26.65-.27,1.29.02,1.93.12.26.29.5.6.49.29,0,.52-.23.55-.48.1-.78.62-.73,1.18-.7.39.02.78.02,1.17,0,.31-.02.37.09.31.38-.43,2.21-3.04,3.35-4.95,2.15-1.27-.79-1.86-2.36-1.44-3.77.43-1.43,1.76-2.39,3.27-2.35,1.48.04,2.71,1.05,3.09,2.52.09.34.06.51-.35.47-.27-.03-.55,0-.82,0Z"/>
        <path class="cls-1" d="m29.5,26.35c0-1.32,0-2.63,0-3.95,0-.6.4-1.09.93-1.21.58-.13,1.15.13,1.43.65.11.21.14.44.14.67,0,2.59,0,5.17,0,7.76,0,.29-.06.41-.38.4-.59-.02-1.19-.02-1.78,0-.3.01-.36-.1-.35-.37.01-1.32,0-2.63,0-3.95Z"/>
        <path class="cls-1" d="m7.03,28.26c0-.65.01-1.3,0-1.95-.01-.45.13-.82.46-1.12.1-.09.17-.2.26-.29.29-.29.3-.57,0-.86-.17-.17-.35-.35-.51-.53-.52-.61-.48-1.43.08-1.95.55-.51,1.37-.5,1.92.02.55.53.57,1.35.04,1.95-.16.18-.33.36-.51.53-.28.28-.28.57.01.82.62.52.78,1.19.75,1.97-.05,1.14-.02,2.28,0,3.42,0,.3-.08.4-.39.39-.59-.02-1.19-.02-1.78,0-.3.01-.36-.1-.35-.37.02-.68,0-1.36,0-2.04Z"/>
        <path class="cls-1" d="m15.19,14.1c0,2.07-1.7,3.76-3.78,3.77-2.09,0-3.79-1.67-3.79-3.75,0-2.08,1.69-3.76,3.77-3.77,2.09,0,3.8,1.69,3.8,3.75Zm-3.78,2.79c1.56,0,2.81-1.26,2.8-2.81-.01-1.52-1.27-2.76-2.81-2.77-1.56,0-2.82,1.24-2.82,2.79,0,1.56,1.25,2.79,2.82,2.78Z"/>
      </g>
    </g>
  </g>
</svg>