<?xml version="1.0" encoding="UTF-8"?>
<svg id="Layer_2" data-name="Layer 2" xmlns="http://www.w3.org/2000/svg" viewBox="0 0 86.23 8.31">
  <g id="Capa_1" data-name="Capa 1">
    <g id="bVu2k5.tif">
      <g>
        <path d="m5.35,0c.28.16.56.33.84.48,1.96,1.01,2.83,2.56,2.45,4.49-.36,1.79-1.57,2.9-3.38,3.23-1.99.36-3.59-.37-4.65-2.08C.4,5.8.2,5.47,0,5.14c0-.66,0-1.32,0-1.98C.86,1.7,2,.55,3.7,0,4.25,0,4.8,0,5.35,0Zm2.37,4.15c-.03-1.67-1.56-3.05-3.36-3.03-1.84.02-3.22,1.38-3.2,3.14.02,1.71,1.51,3.08,3.32,3.04,1.79-.04,3.28-1.48,3.24-3.15Z"/>
        <path d="m12.59,5.11c-.02-3.12.81-3.64,4.04-2.41.54.21.7-.08,1.03-.22,1.87-.82,3.46,0,3.67,1.93.1.91.04,1.83.03,2.75,0,.37.09.89-.53.83-.56-.06-.44-.57-.46-.94-.04-.92,0-1.84-.11-2.75-.08-.72-.56-1.2-1.38-1.19-.83.01-1.25.53-1.31,1.25-.09.98-.06,1.96-.09,2.95-.01.35-.14.69-.54.69-.45,0-.48-.36-.48-.71,0-.85.01-1.71-.02-2.56-.03-.87-.39-1.6-1.4-1.62-1.01-.02-1.41.69-1.45,1.56-.04.85-.01,1.71-.03,2.56,0,.32.01.7-.46.72-.48.02-.49-.37-.5-.69-.02-.72,0-1.44,0-2.16Z"/>
        <path d="m44.76,5.93c-.82-.14-1.13.63-2.07.25.77-1.8,3.31-1.67,3.87-3.4.24.12.35.14.35.18.24,1.31-1.83,4.73-3.05,5.08-1.03.3-1.9,0-2.6-.72-.79-.81-.94-1.87-.35-2.74.52-.77.62-1.46.61-2.33,0-1.28.9-1.86,2.19-1.77.54.04,1.25.3,1.18.86-.08.65-.69.36-1.15.22-.51-.16-.98-.04-1.18.48-.25.65.15.99.75,1.14.35.09.72.18.68.58-.03.38-.4.48-.76.5-.98.06-1.53.6-1.52,1.51,0,.63.41,1.13,1.08,1.3.95.24,1.56-.18,1.99-1.14Z"/>
        <path d="m78.93,6.91c-.95,1.44-2.23,1.69-3.66,1.05-1.39-.63-1.99-1.76-1.79-3.23.23-1.59,1.31-2.45,2.88-2.63,1.5-.17,2.68.51,3.31,1.84.46.97.5,1.82-1.09,1.71-.95-.07-1.91-.02-2.87,0-.32,0-.75-.08-.87.33-.13.45.25.71.58.93,1.15.79,2.3.13,3.51,0Zm-.31-2.31c-.1-1.08-.85-1.43-1.79-1.51-1.05-.08-1.79.35-2.2,1.51h3.99Z"/>
        <path d="m26.04,2.07c1.78.13,3.2,1.66,3.08,3.31-.13,1.68-1.72,2.99-3.5,2.88-1.83-.12-3.16-1.55-3.05-3.29.1-1.68,1.71-3.03,3.47-2.91Zm-.17,1c-1.34.07-2.24.74-2.29,2.04-.05,1.29.78,2.13,2.15,2.17,1.34.03,2.24-.65,2.29-2.01.04-1.34-.77-2.03-2.15-2.2Z"/>
        <path d="m67.93,5.28c-.05,1.72-1.54,3.05-3.35,3-1.79-.05-3.25-1.51-3.19-3.19.06-1.68,1.63-3.07,3.4-3.02,1.79.05,3.2,1.49,3.15,3.21Zm-3.47,2.01c1.38.02,2.31-.63,2.44-1.91.13-1.28-.64-2.15-2.01-2.27-1.37-.12-2.26.57-2.41,1.87-.15,1.34.66,2.06,1.99,2.3Z"/>
        <path d="m32.85,2.05c.7.06,1.29.22,1.78.61.31.25.73.58.5.96-.27.45-.67.18-1.02-.08-.26-.19-.57-.38-.88-.41-.67-.07-1.55-.18-1.7.63-.13.73.69.84,1.29.96.4.08.8.15,1.2.25.81.19,1.35.62,1.35,1.48,0,.85-.54,1.3-1.28,1.6-.79.32-1.61.35-2.39.04-.6-.24-1.54-.57-1.16-1.31.37-.71.84.26,1.31.34.46.08.94.16,1.4.14.49-.01,1.01-.17,1.04-.74.02-.45-.41-.64-.81-.74-.39-.1-.79-.19-1.19-.26-1.11-.18-2.06-.56-1.84-1.86.22-1.29,1.36-1.48,2.4-1.61Z"/>
        <path d="m83.67,8.28c-.64.03-1.24-.14-1.74-.5-.36-.25-.91-.6-.49-1.09.37-.44.68.07,1,.28.47.31,1.02.39,1.57.31.45-.06,1.02-.06,1.11-.66.1-.63-.45-.73-.89-.87-.32-.1-.66-.16-1-.21-1-.16-1.92-.43-1.92-1.63,0-1.15.86-1.58,1.85-1.77,1.08-.21,2.04.07,2.72.95.1.13.13.42.05.55-.15.24-.43.28-.69.08-.1-.08-.2-.18-.31-.25-.74-.51-1.53-.53-2.28-.07-.17.1-.33.51-.25.65.38.65,1.12.65,1.79.77,1.13.21,2.29.51,2.02,1.93-.24,1.25-1.37,1.5-2.52,1.55Z"/>
        <path d="m57.86.73c-1.04.8-2.21.49-3.31.52-.9.02-1.38.2-1.39,1.2,0,.94.34,1.23,1.3,1.29.77.05,2.14-.6,2.17.57.02.76-1.38.41-2.11.38-1.78-.08-1.24,1.12-1.36,2.01-.06.46.27,1.26-.49,1.25-.79,0-.42-.82-.45-1.27-.07-.78-.08-1.58,0-2.36.11-1.28-.67-3.2.35-3.7,1.5-.74,3.51-.36,5.29.12Z"/>
        <path d="m11.04,4.24c0,1.05,0,2.09,0,3.14,0,.36-.14.66-.58.6-.29-.04-.45-.27-.45-.56,0-2.16,0-4.31.02-6.47,0-.28.19-.52.48-.53.44,0,.52.34.52.68,0,1.05,0,2.09,0,3.14Z"/>
        <path d="m69.23,4.7c-.74-1.88.63-2.4,2.46-2.58.29-.03.57-.04.67.25.08.24.1.59-.25.63-2.26.26-1.74,1.9-1.85,3.28-.05.58.42,1.65-.44,1.65-1.05,0-.43-1.12-.57-1.74-.08-.37-.02-.78-.02-1.48Z"/>
        <path d="m60.06.43c0,2.36,0,4.71,0,7.07,0,.27-.14.52-.49.47-.34-.04-.41-.32-.41-.57,0-2.32,0-4.64,0-6.96.3,0,.61,0,.91,0Z"/>
      </g>
    </g>
  </g>
</svg>