<?xml version="1.0" encoding="UTF-8"?>
<svg id="Layer_2" data-name="Layer 2" xmlns="http://www.w3.org/2000/svg" viewBox="0 0 76.65 19.1">
  <g id="Capa_1" data-name="Capa 1">
    <g id="tpaEsD">
      <g>
        <path d="m11.64,7.52c-.05.94-.57,1.85-1.29,2.67-.1.11-.33.22-.22.37.11.16.29-.03.43-.09,1.45-.64,2.8-1.46,4.12-2.34.16-.1.32-.2.49-.28,1.01-.47,1.83-1.2,2.69-1.88.88-.7,1.87-1.01,3-.85.81.11,1.42.93,1.26,1.74-.11.52-.25,1.04-.37,1.56-.18.77-.21,1.54.06,2.3.56,1.55,2.25,2.04,3.58,1.05.8-.6,1.29-1.36,1.41-2.37.1-.84.36-1.65.68-2.43.23-.56.66-.94,1.24-1.13.45-.15.61-.02.54.45-.1.64-.36,1.23-.56,1.84-.32.99-.43,2.01-.57,3.03-.05.36,0,.72.12,1.07.15.46.36.58.85.55.8-.04,1.46-.43,2.11-.83,1.75-1.08,3.33-2.38,4.78-3.85.12-.12.24-.43.46-.25.19.15.11.43-.01.63-.37.63-.88,1.15-1.39,1.66-1.33,1.33-2.74,2.56-4.35,3.54-.55.34-1.14.6-1.79.68-1.01.13-1.76-.35-2.08-1.31-.08-.23-.12-.47-.19-.7-.03-.1,0-.24-.11-.28-.14-.05-.21.07-.29.16-.41.47-.9.84-1.48,1.07-1.36.56-2.72.18-3.61-1.01-.21-.28-.44-.53-.56-.87-.09-.26-.24-.16-.39-.01-.54.54-1.07,1.09-1.67,1.56-.65.51-1.36.9-2.16,1.12-.86.23-1.38,0-1.77-.81-.51-1.06-.29-2.09.07-3.12.04-.13.1-.25.15-.37.05-.14.25-.3.09-.42-.15-.11-.28.09-.41.17-1.83,1.09-3.73,2.05-5.66,2.96-.65.31-1.22.78-1.92.99-.52.15-1.02.11-1.43-.27-.36-.33-.29-.71.13-.95.43-.25.9-.44,1.38-.54.93-.19,1.59-.72,2.11-1.48.44-.64.87-1.28,1.05-2.06.12-.53.14-1.04-.15-1.52-.22-.38-.62-.55-1.03-.39-1,.37-1.75,1.07-2.42,1.86-.67.79-1.18,1.69-1.7,2.58-.99,1.7-1.86,3.47-2.53,5.32-.3.82-.58,1.64-.95,2.43-.05.1-.1.19-.16.28-.17.3-.42.41-.75.31-.32-.09-.43-.35-.43-.66-.01-.56.15-1.09.35-1.6.71-1.84,1.72-3.54,2.7-5.24.79-1.35,1.52-2.74,2.49-3.98.84-1.06,1.78-2.03,3.07-2.52,1.12-.43,1.75-.3,2.42.42.35.37.6,1.17.6,2.03Zm8.98-.14c0-.11,0-.21,0-.32-.03-.59-.18-.74-.77-.7-.66.04-1.19.36-1.67.78-1.03.9-1.72,2.03-2.23,3.29-.18.45-.34.9-.33,1.39,0,.82.35,1.09,1.11.82,2.17-.76,3.87-2.8,3.9-5.27Z"/>
        <path d="m51.73,7.62c-.01.66-.56,1.55-1.24,2.38-.1.12-.36.25-.25.4.11.16.32-.04.46-.1,1.28-.56,2.47-1.28,3.64-2.04.26-.17.52-.33.79-.48.97-.52,1.84-1.17,2.69-1.88.87-.72,1.88-1.12,3.06-.95.83.12,1.46.87,1.31,1.7-.12.66-.3,1.31-.45,1.96-.19.79-.08,1.55.28,2.27.62,1.25,2.04,1.61,3.26.86.94-.58,1.47-1.41,1.61-2.51.1-.76.34-1.49.58-2.21.23-.66.68-1.12,1.34-1.35.44-.16.64,0,.52.46-.21.8-.52,1.58-.72,2.38-.22.94-.42,1.88-.43,2.86,0,.24.06.48.13.71.16.49.49.68.99.57.53-.11,1.02-.31,1.49-.58,1.99-1.12,3.71-2.59,5.32-4.18.11-.11.19-.37.4-.2.18.14.14.38.03.56-.23.35-.46.7-.74,1-1.49,1.63-3.13,3.08-5,4.27-.57.36-1.19.62-1.86.72-.96.14-1.73-.34-2.03-1.25-.08-.25-.15-.52-.22-.77-.03-.1,0-.23-.14-.26-.13-.03-.19.07-.26.15-.55.62-1.2,1.06-2.02,1.24-1.2.26-2.2-.08-2.97-1.03-.25-.31-.53-.6-.66-1-.09-.28-.22-.17-.37-.02-.61.58-1.18,1.21-1.87,1.7-.68.49-1.4.9-2.24,1.03-.73.11-1.1-.08-1.45-.73-.5-.95-.42-1.92-.11-2.89.1-.31.24-.6.36-.89.03-.08.13-.17.04-.25-.1-.1-.2,0-.29.05-1.07.69-2.21,1.27-3.34,1.85-1.33.69-2.7,1.31-4,2.05-.52.29-1.1.37-1.65.03-.23-.14-.4-.31-.4-.61,0-.29.2-.41.42-.53.5-.27,1.03-.45,1.58-.58.48-.11.92-.33,1.24-.7.74-.84,1.41-1.72,1.66-2.85.09-.39.1-.77-.04-1.15-.25-.69-.78-.92-1.43-.58-1.02.53-1.85,1.28-2.51,2.21-.99,1.39-1.81,2.88-2.57,4.4-.68,1.37-1.23,2.79-1.73,4.23-.17.49-.41.96-.63,1.44-.15.33-.4.5-.78.41-.37-.09-.47-.38-.46-.71.02-.87.36-1.64.72-2.41.74-1.59,1.59-3.12,2.49-4.63.71-1.2,1.36-2.43,2.21-3.54.77-1.01,1.65-1.9,2.78-2.51,1.86-1,3.42-.06,3.44,2.51Zm8.99-.37c0-.11,0-.21,0-.32-.03-.62-.22-.79-.84-.72-.62.07-1.13.39-1.6.78-1.11.94-1.8,2.17-2.32,3.51-.15.38-.26.79-.25,1.21.02.8.35,1.05,1.09.8,2.19-.76,3.87-2.76,3.92-5.25Z"/>
        <path d="m70.21,2.14s.02,0,0,0c-.33-.05-.79.04-.92-.34-.12-.35.12-.71.38-.96.43-.41.83-.89,1.51-.84.53.04.74.31.63.83-.18.84-.77,1.34-1.62,1.31Z"/>
        <path d="m30.12,2.3c-.07,0-.21-.01-.36-.03-.56-.08-.68-.27-.49-.79.23-.63,1.26-1.36,1.84-1.29.57.06.73.28.61.84-.18.81-.75,1.29-1.6,1.27Z"/>
      </g>
    </g>
  </g>
</svg>