<?xml version="1.0" encoding="UTF-8"?>
<svg id="Layer_2" data-name="Layer 2" xmlns="http://www.w3.org/2000/svg" viewBox="0 0 63.57 14.93">
  <g id="Capa_1" data-name="Capa 1">
    <g id="uqTLSx">
      <g>
        <path d="m30.91,10.28c-.79,0-1.59,0-2.38,0-.12,0-.33-.12-.33.18,0,.28.17.25.36.25,1.61,0,3.23.01,4.84-.01.35,0,.4.11.4.42,0,.63.15,1.26.28,1.86.1.44.05.9.21,1.33.05.13-.05.16-.16.16-.39,0-.77,0-1.16,0-.08,0-.19.02-.18-.11.03-.52-.31-.98-.23-1.51.02-.1.02-.23-.02-.32-.1-.24-.21-.4-.55-.39-1.42.04-2.84.02-4.26.01-.33,0-.48.16-.59.45-.11.27-.25.55-.44.77-.24.28-.34.63-.53.93-.09.15-.17.16-.3.16-.35,0-.7,0-1.05,0-.23,0-.47.07-.22-.32.33-.52.58-1.09.88-1.63.23-.42.42-.9.69-1.27.34-.48.6-.99.84-1.52.17-.36.41-.67.61-1.01.19-.32.4-.66.54-.98.2-.46.57-.82.7-1.33.06-.23.21-.6.51-.75.07-.03.07-.08.09-.13.12-.24.31-.47.36-.73.05-.26.27-.41.32-.68.03-.14.16-.34.26-.49.22-.3.36-.63.52-.96.12-.25.27-.52.44-.75.18-.25.31-.51.44-.78.11-.24.23-.52.44-.7.09-.08.23-.08.35-.06.3.06.6.04.9.03.55-.02.73.13.73.69,0,.24-.08.53.02.71.23.4.07.86.22,1.22.19.45.04.94.23,1.32.21.42.01.89.21,1.21.32.53-.02,1.16.38,1.63.01.02.02.05.02.07-.12.65.16,1.27.25,1.89.08.52.07,1.07.31,1.57.12.25-.03.59.09.88.16.38.06.83.18,1.19.15.45.19.88.19,1.34,0,.01,0,.03,0,.04q.11.31-.26.31c-.34,0-.68-.02-1.01,0-.3.03-.36-.13-.39-.37,0-.01,0-.02,0-.04.13-.68-.14-1.33-.25-1.97-.08-.43,0-.9-.19-1.3-.16-.33-.02-.7-.16-.98-.21-.44-.08-.92-.22-1.33-.16-.43-.07-.88-.22-1.25-.17-.43-.02-.93-.22-1.24-.27-.43-.02-.87-.2-1.22-.32-.62-.1-1.33-.42-1.93-.05-.09-.1-.09-.17-.09-.08,0-.15,0-.2.09-.08.14-.11.35-.04.41.34.3.14.69.2,1.03.02.13-.09.32.17.36.08.01.05.15.05.23,0,.26-.1.6.02.78.29.45.02.99.23,1.35.25.43.03.86.2,1.22.2.42.14.84.22,1.26.03.16.08.35.15.51.12.29-.05.27-.23.27-.82,0-1.64,0-2.46,0Zm-.44-1.23c.35,0,.7,0,1.05,0,.11,0,.24,0,.24-.14,0-.37.12-.81-.04-1.1-.22-.41-.12-.8-.17-1.19-.01-.09,0-.26-.04-.27-.27-.07-.16-.28-.18-.43-.01-.15,0-.31,0-.47,0-.08.05-.23-.11-.21-.11.02-.32.02-.31.16.03.25-.21.37-.22.56,0,.18-.26.08-.23.26.05.28-.21.43-.3.66-.24.66-.74,1.2-.97,1.89-.1.32.04.27.19.28.36.02.72,0,1.08,0Z"/>
        <path d="m44.39,2.11c.73,0,1.47,0,2.2,0,.47,0,.85.22,1.27.38.29.12.47.31.69.48.3.23.42.54.48.89.06.37.05.75,0,1.13-.07.6-.36,1.08-.71,1.55-.17.23-.31.46-.52.66-.36.35-.75.6-1.24.8-.73.3-1.45.12-2.16.17-.74.05-1.49,0-2.24.02-.12,0-.35-.11-.34.11.01.14.12.33.39.33,1.41-.02,2.82,0,4.23,0,.46,0,.92.46.92.92,0,.15-.04.31.16.39.09.04.05.15.05.23,0,.28,0,.55,0,.83,0,.16.04.34-.14.44-.03.02-.05.06-.05.09.02.74-.39,1.44-.24,2.19.02.08.04.16.07.23q.25.52-.33.52c-.37,0-.75,0-1.12,0-.15,0-.2-.05-.24-.19-.13-.44-.3-.89-.18-1.33.09-.34.22-.69.28-1.03.1-.55.35-1.14-.06-1.7-.08-.12-.13-.16-.26-.16-1.18,0-2.36,0-3.53,0-.19,0-.28.05-.28.26,0,.59-.27,1.14-.32,1.7-.04.49-.36.92-.26,1.43.03.14.08.32-.17.4-.1.03-.05.24-.04.37.01.19-.06.25-.25.24-.4-.01-.79,0-1.19,0-.08,0-.22.05-.22-.11,0-.11-.08-.27.08-.31.13-.04.13-.11.13-.21,0-.3.11-.59.16-.86.07-.44.24-.87.27-1.32.04-.57.19-1.12.35-1.67.06-.22-.04-.49.09-.7.18-.31.06-.67.16-.98.11-.36.09-.77.24-1.06.17-.34.05-.69.2-.94.22-.38.05-.84.23-1.13.22-.34.03-.73.2-.95.29-.37.06-.82.32-1.17.08-.11.1-.28.1-.44,0-.5,0-.5.52-.5.76,0,1.52,0,2.28,0Zm-.23,4.77c.29,0,.58,0,.87,0,.62,0,1.21-.09,1.67-.58.29-.31.54-.64.53-1.08,0-.31,0-.6-.17-.93-.17-.32-.48-.48-.66-.49-1.06-.06-2.12-.03-3.18-.03-.12,0-.22.02-.25.15-.06.29-.15.57-.17.87-.02.41-.29.78-.21,1.22,0,.02-.04.05-.07.07-.21.15-.18.39-.12.56.06.16.26.25.48.24.42-.02.84,0,1.26,0Z"/>
        <path d="m44.2.45c1.3,0,2.6-.05,3.9.02.58.03,1.18.22,1.61.71.08.09.19.19.3.25.26.15.4.37.58.6.31.41.39.87.59,1.3.2.44.16.84.17,1.27,0,.47-.2.9-.34,1.33-.1.31-.19.6-.42.87-.3.34-.65.63-.98.93-.24.22-.51.38-.84.45-.12.03-.09.12-.01.21.19.2.4.37.58.59.2.26.4.49.36.84-.02.15.03.32.11.4.18.18.16.42.08.56-.19.36-.18.72-.2,1.1,0,.19.12.44-.19.53-.02,0-.03.11-.03.17,0,.45,0,.89,0,1.34,0,.12.04.22.11.29.06.06.14.1.09.2-.04.08-.13.05-.19.05-.48,0-.96,0-1.45,0-.1,0-.2.02-.23-.15-.1-.52-.28-1.04-.13-1.56.14-.48.14-.98.3-1.46.14-.45.21-1.02-.07-1.51-.06-.1-.09-.23-.08-.34.02-.39-.21-.63-.49-.82-.11-.08-.09-.27-.28-.27-.04,0-.05-.16.08-.17.51-.03.77-.45,1.11-.73.26-.21.29-.61.64-.75-.01-.46.36-.75.49-1.16.21-.65.21-1.26.11-1.9-.07-.45-.37-.76-.64-1.09-.23-.28-.68-.26-.84-.63,0,0-.02-.02-.03-.01-.44.1-.76-.26-1.21-.24-1.7.05-3.4.02-5.09.02-.36,0-.45.13-.49.5-.08.63-.15,1.27-.41,1.87-.03.07-.01.17-.02.25-.02.26.09.55-.19.75-.04.03,0,.14-.02.21-.05.23.14.52-.2.68-.04.02,0,.18-.02.28-.04.26.12.56-.19.78-.07.05-.01.28-.03.42-.03.21.13.48-.19.6-.01,0-.02.04-.02.07.08.41-.19.77-.2,1.15-.01.55-.22,1.04-.27,1.58-.05.62-.29,1.21-.35,1.85-.03.36-.19.7-.24,1.07-.03.18-.18.39-.18.62,0,.12-.08.13-.17.13-.43,0-.87,0-1.3,0-.17,0-.29-.31-.15-.38.29-.13.14-.36.18-.54.04-.2-.13-.46.19-.57.01,0,.03-.04.02-.06-.13-.53.16-1.01.26-1.5.12-.56.17-1.14.33-1.7.11-.37.14-.78.24-1.14.12-.43.09-.9.23-1.28.14-.36.04-.75.2-1.02.21-.37.04-.81.22-1.06.24-.34.04-.71.22-.96.24-.33.03-.73.2-.97.3-.43.1-.92.33-1.35.16-.31.18-.7.22-1.06.03-.29.1-.43.44-.43,1.3.02,2.6,0,3.9,0Z"/>
        <path d="m.04,10.5c0-.4,0-.69,0-.98,0-.17.03-.27.23-.26.34.02.67.01,1.01,0,.16,0,.21.05.21.21,0,.25-.02.51,0,.76.06.65.17,1.31.59,1.82.4.49.82.95,1.44,1.22.55.23,1.09.42,1.68.41.55-.02,1.1.07,1.65-.07.41-.1.79-.31,1.22-.37.11-.02.05-.15.15-.21.41-.23.78-.49,1.1-.85.21-.23.33-.49.48-.75.37-.66.37-1.39.2-2.09-.15-.62-.54-1.19-1.08-1.53-.57-.36-1.17-.73-1.85-.88-.45-.09-.9-.17-1.36-.26-.25-.05-.55-.08-.75-.18-.19-.09-.43-.21-.62-.32-.24-.15-.42-.36-.65-.49-.21-.12-.01-.37-.25-.47-.16-.07-.1-1.44.03-1.59.2-.23.28-.57.55-.74.29-.18.53-.41.84-.58.19-.1.51-.07.61-.35,0-.02.06-.05.08-.05.5.14.91-.26,1.4-.23.48.03,1.03-.13,1.42.05.29.13.62.16.91.33.36.2.59.52.88.76.13.11.38.4.29.73-.04.16-.1.38.17.51.1.05.06.32.01.48-.04.15-.19.11-.31.11-.49,0-.99,0-1.48,0-.1,0-.29.02-.26-.11.09-.35-.25-.54-.24-.85,0-.15-.13-.11-.19-.16-.3-.24-.61-.42-1.01-.4-.22,0-.44.02-.65,0-.48-.06-.81.27-1.19.45-.15.08,0,.3-.1.43-.2.23-.06.43.03.66.11.27.34.31.55.43.5.3,1.07.29,1.61.44.35.1.68.08,1.03.13.33.04.65.16.95.26.37.12.74.33,1.07.61.39.33.76.65,1.04,1.09.25.4.46.77.43,1.26-.02.28.3.49.21.82-.13.44-.13.94-.27,1.35-.15.46-.39.93-.67,1.37-.28.45-.69.73-.99,1.13-.07.1-.36.14-.52.27-.28.24-.66.3-.93.47-.28.17-.69,0-.86.36,0,.02-.07.03-.1.03-.92-.01-1.81.35-2.75.22-.24-.03-.46-.04-.69-.17-.23-.12-.56-.03-.85-.05-.13,0-.33.09-.36-.17,0-.02-.09-.05-.13-.04-.34.13-.57-.17-.83-.26-.14-.05-.36-.21-.53-.36-.39-.36-.82-.68-1.11-1.13-.11-.17-.23-.37-.26-.57-.08-.59-.38-1.15-.23-1.65Z"/>
        <path d="m56.26,14.9c-.34,0-.67.01-1.01,0-.34-.01-.71.1-1.01-.2-.03-.03-.12-.02-.18-.01-.44.06-.76-.22-1.13-.36-.61-.21-1.02-.66-1.45-1.1-.13-.13-.19-.35-.3-.47-.23-.25-.11-.62-.36-.83-.08-.07-.05-.15-.05-.23,0-.67,0-1.35,0-2.02,0-.2,0-.29.28-.22.29.07.63.05.93,0,.21-.03.24.04.24.19,0,.28.02.55,0,.83-.03.5.17.94.37,1.36.21.44.49.94.9,1.12.38.18.7.46,1.15.58.4.1.86.27,1.2.24.57-.05,1.17,0,1.73-.15.48-.14.97-.28,1.43-.55.59-.35,1.05-.81,1.4-1.33.51-.77.58-1.62.24-2.53-.21-.55-.62-.88-1.02-1.22-.57-.49-1.26-.75-2.03-.93-.62-.14-1.28-.24-1.89-.5-.37-.15-.7-.38-1.09-.5-.19-.06-.32-.35-.43-.55-.14-.25-.03-.59-.29-.81-.02-.02.01-.13.05-.16.19-.12.2-.31.16-.48-.08-.3.12-.59.27-.65.25-.1.12-.3.24-.42.24-.23.54-.39.8-.59.14-.11.54-.19.68-.31.4-.33.87-.08,1.28-.31.43-.24,1-.17,1.44-.04.27.08.56.09.81.19.28.1.54.3.77.5.19.16.35.35.5.56.18.25.41,1.33.3,1.59-.04.09-.11.08-.17.08-.48,0-.96,0-1.44,0-.19,0-.26-.08-.25-.26.01-.41-.28-.62-.57-.83-.43-.32-.91-.46-1.43-.42-.47.04-.9.26-1.26.54-.11.09-.4.37-.27.61.18.34.31.76.71.93.25.1.54.11.78.24.43.23.9.13,1.32.24.34.09.78.06.98.22.28.23.68,0,.88.36.06.11.32.03.49.18.42.37.82.75,1.15,1.23.22.31.27.68.51.97.06.07.02.21.03.32.02.24.02.48.18.69.07.09.07.25.02.31-.27.3-.14.68-.22,1-.1.41-.31.79-.47,1.18-.28.7-.92,1.1-1.42,1.6-.11.11-.34.26-.58.31-.22.04-.41.22-.62.34-.03.02-.05.07-.07.07-.26-.02-.51.21-.68.19-.45-.04-.78.28-1.2.26-.43-.02-.87,0-1.3,0Z"/>
        <path d="m7.64.01c.31,0,.63-.01.94,0,.17,0,.39-.11.46.18,0,.02.11.03.17.03.94.12,1.75.53,2.39,1.23.14.16.27.32.45.45.15.12-.04.45.28.49.16.62.52,1.19.45,1.88-.03.27-.07.4-.37.38-.36-.02-.72,0-1.08,0-.14,0-.25-.02-.22-.19.1-.44-.33-.78-.22-1.22-.3-.08-.22-.41-.37-.61-.15-.2-.36-.39-.48-.61-.08-.15-.2-.1-.28-.17-.25-.19-.54-.29-.83-.42-.81-.37-1.64-.14-2.44-.15-.33,0-.73.13-1.08.34-.17.1-.41.21-.63.3-.38.15-.74.36-1.04.66-.19.18-.36.39-.53.58-.41.47-.42,2.21,0,2.69.24.26.52.52.87.71.33.18.67.28,1.02.42.63.24,1.29.27,1.93.44.34.09.69.22,1,.37.59.29,1.11.71,1.42,1.35.29.62.18,1.26.1,1.85-.06.47-.51.82-.86,1.19-.35.37-.79.56-1.22.76-.28.13-.61.25-.96.24-.43,0-.87-.04-1.3,0-.64.06-1.22-.14-1.75-.4-.32-.16-.77-.32-.92-.67-.19-.43-.42-.85-.49-1.33-.04-.3-.14-.6-.13-.91.01-.43.16-.59.58-.59.37,0,.75.02,1.12,0,.29-.02.36.09.33.35-.02.12,0,.24,0,.36-.02.77.25,1.33,1.01,1.62.71.27,1.7.25,2.24-.23.2-.18.28-.43.39-.67.12-.27.01-.46-.04-.67-.07-.28-.33-.43-.54-.6-.37-.32-.88-.38-1.28-.61-.45-.26-1,0-1.38-.39-.01-.01-.05-.01-.07-.01-.46.02-.81-.25-1.21-.39-.41-.14-.63-.45-.92-.68-.33-.28-.5-.72-.7-1.12-.35-.68-.06-1.36-.18-2.02.34-.2.06-.66.39-.89.12-.09.04-.33.18-.49.27-.31.4-.77.74-1,.33-.23.58-.53.94-.73.39-.21.79-.47,1.19-.57.38-.1.73-.38,1.17-.29.13.03.34.11.39-.16.01-.07.15-.04.23-.04.37,0,.75,0,1.12,0Z"/>
        <path d="m58.36.01c.19,0,.39,0,.58,0,.16,0,.34-.05.43.16.02.04.11.06.16.05.47-.11.9.1,1.31.25.18.07.42.16.61.34.14.14.37.25.57.38.31.2.48.53.8.72.13.08-.08.4.23.44-.06.31.31.47.26.8-.03.22-.09.45.17.69.29.27-.03.79-.43.79-.4,0-.79,0-1.19,0-.17,0-.24-.06-.22-.23,0-.11,0-.22,0-.32.04-.47-.16-.83-.38-1.24-.18-.33-.41-.55-.65-.79-.19-.19-.54-.23-.66-.4-.24-.33-.69,0-.87-.38-.02-.04-.13-.04-.2-.04-.47,0-.94-.02-1.41,0-.4.02-.82.15-1.16.27-.32.11-.7.41-1.02.53-.63.23-.93.75-1.32,1.17-.17.19-.37.5-.29.85.03.11.08.27-.14.38-.14.07-.16.41.02.52.14.09.13.18.13.28,0,.18.05.3.19.46.29.34.58.7.94.95.18.13.42.38.74.29.09-.03.23-.04.24.13,0,.06.06.08.1.07.47-.07.86.27,1.33.24.24-.01.52.09.74.21.19.1.44.06.54.15.19.19.48.13.65.37.08.11.22.35.49.27.17-.05.15.16.2.23.52.69.59,1.49.5,2.32-.02.13-.12.18-.16.3-.13.4-.3.86-.66,1.03-.31.14-.54.39-.86.52-.91.36-1.85.47-2.81.43-.55-.02-1.05-.15-1.57-.38-.68-.3-1.03-.82-1.35-1.39-.32-.56-.26-1.2-.24-1.82,0-.23.2-.21.36-.19.43.05.86.06,1.29,0,.18-.03.22.04.22.17.02.35.02.68.13,1.04.16.49.64.99,1.16,1.08.23.04.46.05.69.18.22.12.46-.12.71-.17.82-.17,1.28-.89,1.06-1.71-.07-.27-.29-.6-.65-.61-.22,0-.3-.19-.43-.26-.47-.26-1.06-.19-1.49-.53-.03-.02-.1-.03-.14-.01-.46.12-.86-.15-1.26-.26-.55-.16-1.04-.5-1.46-.95-.2-.22-.23-.6-.59-.68.07-.3-.32-.44-.25-.73.09-.34-.22-.63-.11-.94.13-.38-.03-.83.14-1.14.26-.49.4-1.04.8-1.46.34-.36.63-.79,1.06-1.05.48-.29.93-.68,1.53-.73.21-.4.73-.05.99-.41.07-.09.34,0,.52-.03.19-.02.44.12.54-.18,0-.03.13-.03.2-.03.23,0,.46,0,.69,0Z"/>
        <path d="m16.82,14.47c-1.51,0-3.01,0-4.52,0-.43,0-.52-.16-.34-.56.04-.08.17-.08.14-.18-.13-.53.2-.99.25-1.51.04-.4.08-.86.24-1.19.13-.27.05-.55.18-.75.27-.43.08-.97.35-1.39.01-.02.04-.04.04-.06-.08-.51.21-.94.25-1.43.04-.46.17-.91.32-1.35.07-.22-.02-.5.06-.71.13-.34.08-.76.22-1.03.22-.41,0-.92.38-1.26.07-.06,0-.26.02-.39.04-.21-.14-.49.19-.6.01,0,.02-.05.02-.07-.13-.48.25-.87.22-1.33-.01-.18.06-.24.23-.22.08,0,.17,0,.25,0,2.81,0,5.61,0,8.42,0,.07,0,.14,0,.22,0,.2,0,.45-.1.59.03.16.15-.17.28-.14.48.02.12-.06.27-.02.39.09.27-.22.32-.26.51,0,0-.08.01-.08,0-.13-.33-.42-.18-.63-.18-2.19-.01-4.38,0-6.58,0-.37,0-.56.18-.56.54,0,.14.06.31-.18.36-.08.02-.02.18-.04.27-.05.26.14.57-.19.8-.09.06-.01.37-.02.56,0,.15.07.34-.16.42-.03.01-.05.1-.05.16-.02.28.08.59-.21.8.13.51-.19.95-.25,1.43-.06.48-.18.98-.29,1.46-.09.42-.29.84-.27,1.29.01.19.13.45-.18.57-.04.01-.01.18-.03.27-.04.25.11.55-.19.74-.05.03,0,.21-.02.31-.03.19.07.37-.17.55-.15.12-.09.49-.02.72.05.17.27.08.42.08,2.4,0,4.79,0,7.19,0,.1,0,.26-.08.31.08.04.13-.02.21-.13.32-.17.16-.08.44-.06.65.03.32-.08.4-.4.39-1.51-.02-3.01,0-4.52,0Z"/>
        <path d="m24.22,2.33c-.2.22-.2.44-.19.68,0,.55-.04.56-.6.55-1.02-.02-2.05,0-3.07,0-.59,0-1.18,0-1.77,0-.48,0-.61.13-.63.62,0,.11-.13.24-.13.26-.05.45-.22.88-.29,1.33-.02.17.19.1.29.1,1.48,0,2.96,0,4.44,0,.1,0,.19,0,.29,0,.36,0,.56.33.35.62-.14.19-.19.37-.17.58.01.19-.06.25-.24.24-1.66-.01-3.32-.02-4.98-.02-.13,0-.3-.04-.4.08-.06.07,0,.18.04.27.08.17.23.09.35.09,1.58,0,3.15,0,4.73,0,.28,0,.44.01.3.37-.08.21-.05.45-.12.69-.08.25-.18.25-.37.25-1.65,0-3.3,0-4.95,0-.22,0-.33,0-.38.3-.08.49-.25.97-.2,1.48,0,.05-.03.11-.06.16-.19.33-.08.52.32.52,1.19,0,2.38,0,3.58,0,.43,0,.87,0,1.3,0,.1,0,.21.05.29-.07.08-.13.11-.04.16.04.14.26.04.92-.19,1.08-.06.04-.16.03-.25.03-2.32,0-4.65,0-6.97,0-.09,0-.21.06-.25-.06-.05-.14.11-.12.16-.17.1-.11.03-.28.05-.42.03-.23-.11-.51.19-.67.03-.01.02-.09.03-.14,0-.31.13-.62.16-.89.04-.5.26-.94.29-1.43.03-.45.15-.89.33-1.31,0-.01.02-.02.02-.03-.08-.47.16-.88.23-1.33.03-.19-.1-.4.18-.55.09-.05.02-.36.04-.55.02-.15-.11-.38.18-.43.01,0,.03-.04.03-.06-.13-.45.27-.83.21-1.25-.05-.37.23-.59.25-.91,0-.09.11-.06.18-.06,2.43,0,4.86,0,7.29,0Z"/>
        <path d="m31.63.22c.29.32-.06.48-.14.65-.14.29-.32.58-.54.84-.11.13-.16.34-.24.51-.22.46-.54.86-.74,1.33-.1.23-.22.44-.31.67-.12.3-.34.57-.51.85-.11.18-.29.35-.33.55-.05.24-.22.42-.3.64-.06.17-.24.39-.35.58-.15.27-.29.54-.41.82-.1.24-.26.51-.44.74-.25.33-.46.7-.63,1.09-.08.19-.13.44-.36.6-.22.16-.24.5-.4.75-.14.22-.35.48-.37.68-.06.41-.44.56-.55.93-.05.18-.2.44-.35.64-.19.26-.34.62-.45.95-.09.29-.24.46-.59.43-.35-.04-.7,0-1.05-.01-.09,0-.21.06-.26-.06-.05-.12.05-.31.09-.32.28-.07.26-.37.35-.53.2-.34.38-.69.6-1.02.09-.13.16-.33.2-.45.18-.56.62-.95.86-1.45.2-.42.4-.83.62-1.24.16-.3.33-.6.48-.91.26-.52.63-1,.9-1.53.24-.46.46-.93.74-1.36.12-.18.16-.4.34-.55.14-.12.2-.35.26-.5.12-.32.32-.58.47-.87.26-.49.53-.98.8-1.47.16-.29.33-.56.47-.87.11-.27.32-.52.43-.82.05-.13.31-.16.49-.12.26.05.53.03.79.03.16,0,.32-.02.43-.18Z"/>
      </g>
    </g>
  </g>
</svg>