<?xml version="1.0" encoding="UTF-8"?>
<svg id="Layer_2" data-name="Layer 2" xmlns="http://www.w3.org/2000/svg" viewBox="0 0 103.68 12.74">
  <g id="Capa_1" data-name="Capa 1">
    <g id="AIkREp">
      <g>
        <path d="m28.22,12.51c-.55,0-1.09,0-1.63,0-.14,0-.16-.1-.2-.19-.18-.44-.37-.87-.55-1.31-.3-.71-.6-1.41-.89-2.12-.07-.17-.15-.24-.34-.23-.68.01-1.37,0-2.05,0-.27,0-.27,0-.27.27,0,.86,0,1.71,0,2.57,0,.24,0,.47,0,.71q0,.3-.3.3c-.37,0-.75,0-1.12,0-.19,0-.19,0-.2-.2,0-.05,0-.11,0-.16,0-3.01,0-6.02,0-9.03,0-.41-.04-.36.37-.36,1.02,0,2.04,0,3.06-.02.44,0,.87-.03,1.31,0,1,.06,1.75.55,2.26,1.38.63,1.05.62,2.13-.01,3.19-.23.39-.57.68-.97.9-.22.12-.22.12-.12.37.38.9.77,1.79,1.15,2.69.14.33.28.65.42.98.03.07.08.14.07.27Zm-4.42-5.51s0,0,0,0c.43,0,.86,0,1.28,0,.11,0,.22-.02.33-.03.72-.09,1.21-.74,1.08-1.44-.11-.6-.56-1.03-1.18-1.08-.95-.08-1.91-.02-2.87-.03-.15,0-.16.08-.16.19,0,.73,0,1.46,0,2.19,0,.2,0,.21.22.21.43,0,.86,0,1.28,0Z"/>
        <path d="m30.32,7.61c0-.84.12-1.71.43-2.54.62-1.63,2.09-2.6,3.82-2.47,1.31.1,2.27.79,2.93,1.91.35.6.53,1.26.62,1.94.17,1.23.11,2.44-.3,3.62-.44,1.27-1.29,2.12-2.59,2.49-1.83.52-3.77-.49-4.48-2.31-.33-.84-.43-1.71-.43-2.64Zm6.23-.03c-.01-.18-.02-.43-.05-.69-.07-.6-.23-1.18-.56-1.7-.84-1.32-2.63-1.09-3.32-.07-.18.27-.33.55-.42.86-.3,1.09-.33,2.18-.02,3.27.13.47.35.9.72,1.24.84.8,2.19.71,2.92-.19.21-.26.35-.55.46-.86.2-.58.25-1.17.27-1.85Z"/>
        <path d="m50.31,7.71c.02-.98.13-1.89.49-2.75.65-1.56,2.09-2.46,3.77-2.35,1.01.07,1.82.53,2.49,1.28.54.6.83,1.33.98,2.11.28,1.44.25,2.87-.28,4.25-.5,1.3-1.44,2.11-2.81,2.38-1.27.25-2.36-.15-3.29-1.01-.67-.62-1-1.43-1.18-2.3-.12-.55-.15-1.1-.16-1.61Zm1.67-.03c0,.35.01.69.07,1.04.12.65.33,1.25.8,1.74.85.87,2.28.77,3-.2.26-.34.42-.73.52-1.14.2-.8.21-1.61.09-2.42-.08-.54-.24-1.05-.54-1.51-.83-1.28-2.55-1.07-3.25-.13-.17.23-.31.47-.41.74-.23.61-.29,1.24-.29,1.88Z"/>
        <path d="m11.51,7.63c0-1.51,0-3.01,0-4.52,0-.07,0-.15,0-.22,0-.09.04-.14.13-.13.05,0,.11,0,.16,0,2.05,0,4.11,0,6.16,0,.03,0,.05,0,.08,0,.24,0,.24,0,.24.25,0,.39,0,.78,0,1.18,0,.23,0,.24-.25.24-.85,0-1.7,0-2.55,0-.7,0-1.4,0-2.11,0-.26,0-.26,0-.26.25,0,.49,0,.99,0,1.48,0,.23,0,.24.25.24.72,0,1.44,0,2.16,0,.06,0,.13,0,.19,0,.13,0,.18.04.18.17,0,.17,0,.35,0,.52,0,.26,0,.51,0,.77,0,.21,0,.21-.22.21-.71,0-1.42,0-2.13,0q-.42,0-.42.41c0,.7,0,1.4,0,2.11,0,.28,0,.28.29.28,1.57,0,3.14,0,4.71,0,.35,0,.33-.05.33.34,0,.37,0,.75,0,1.12,0,.14-.04.21-.19.19-.04,0-.07,0-.11,0-2.13,0-4.25,0-6.38,0,0,0-.02,0-.03,0q-.25,0-.25-.26c0-.06,0-.13,0-.19,0-1.48,0-2.96,0-4.43Z"/>
        <path d="m63.86,12.74c-1.38-.02-2.57-.49-3.5-1.53-.3-.33-.29-.33.05-.61.25-.21.51-.42.76-.62.23-.19.17-.18.39.02.11.1.22.2.32.3.44.43.99.65,1.59.72.6.07,1.19.01,1.74-.26.27-.14.51-.32.67-.59.29-.49.17-.92-.32-1.21-.17-.1-.36-.17-.55-.23-.8-.27-1.63-.48-2.43-.76-.31-.11-.61-.23-.9-.39-.79-.43-1.19-1.1-1.23-1.99-.07-1.37.73-2.5,2.24-2.86,1.6-.38,3.04,0,4.26,1.12.03.03.06.06.1.1.07.06.07.12,0,.19-.3.34-.59.67-.88,1.01-.07.09-.13.1-.23.02-.25-.21-.53-.39-.83-.53-.69-.32-1.4-.39-2.13-.18-.21.06-.39.16-.54.32-.44.45-.32,1.17.24,1.44.3.15.61.23.93.33.64.2,1.3.36,1.93.59.34.12.68.27,1,.44.79.42,1.13,1.11,1.18,1.97.04.79-.24,1.47-.78,2.03-.6.62-1.36.94-2.19,1.09-.29.05-.58.07-.87.07Z"/>
        <path d="m76.39,12.52c.14-.36.26-.66.38-.96,1.13-2.84,2.26-5.67,3.39-8.51.01-.03.02-.05.03-.08.04-.15.12-.22.29-.21.44.01.88,0,1.31,0,.22,0,.22,0,.31.22.66,1.67,1.33,3.34,1.99,5,.56,1.41,1.12,2.81,1.68,4.22.04.09.1.18.07.28-.09.05-.18.03-.27.03-.36,0-.73,0-1.09,0-.34,0-.28.01-.39-.26-.25-.62-.49-1.24-.74-1.85-.11-.29-.1-.25-.35-.25-1.25,0-2.5,0-3.75,0-.21,0-.21-.05-.31.22-.25.64-.51,1.29-.77,1.93-.08.21-.08.21-.32.21-.47,0-.95,0-1.47,0Zm6.17-3.99c-.47-1.19-.92-2.35-1.39-3.54-.23.41-1.36,3.34-1.37,3.54h2.75Z"/>
        <path d="m9.42,12.51c-.52,0-1.03,0-1.54,0-.14,0-.16-.1-.2-.19-.25-.64-.5-1.27-.76-1.91-.12-.31-.07-.27-.39-.27-1.22,0-2.44,0-3.67,0-.3,0-.26-.04-.37.25-.25.63-.51,1.27-.76,1.91-.06.15-.12.22-.29.21-.48-.01-.96,0-1.44,0-.03-.12.03-.2.06-.28,1.22-3.08,2.44-6.15,3.67-9.22.12-.29.08-.25.37-.25.41,0,.82,0,1.23,0,.24,0,.24,0,.33.23.57,1.43,1.14,2.86,1.71,4.29.65,1.63,1.3,3.27,1.95,4.91.04.09.09.18.09.33Zm-4.66-7.5h-.06c-.45,1.16-.91,2.32-1.36,3.48.29.06,2.56.06,2.78,0-.45-1.16-.91-2.32-1.36-3.47Z"/>
        <path d="m96.73,7.64c0-1.51,0-3.01,0-4.52,0-.07,0-.15,0-.22,0-.11.05-.15.15-.14.05,0,.11,0,.16,0,2.04,0,4.09,0,6.13,0,.32,0,.33-.05.33.32,0,.36,0,.73,0,1.09,0,.23,0,.24-.25.24-.75,0-1.5,0-2.24,0-.8,0-1.61,0-2.41,0-.26,0-.26,0-.26.25,0,.49,0,.99,0,1.48,0,.24,0,.24.25.24.72,0,1.44,0,2.16,0,.06,0,.13,0,.19,0,.12,0,.18.04.18.17,0,.43,0,.86,0,1.29,0,.21,0,.21-.22.21-.71,0-1.42,0-2.14,0q-.42,0-.42.41c0,.68,0,1.37,0,2.05,0,.37-.03.33.34.33,1.54,0,3.08,0,4.63,0,.07,0,.15,0,.22,0,.1,0,.15.04.15.15,0,.46,0,.91,0,1.37,0,.11-.05.15-.15.14-.05,0-.11,0-.16,0-2.11,0-4.22,0-6.32,0-.05,0-.11,0-.16,0-.1,0-.15-.04-.15-.14,0-.07,0-.15,0-.22,0-1.51,0-3.01,0-4.52Z"/>
        <path d="m40.77,7.63c0-1.48,0-2.96,0-4.43,0-.05,0-.11,0-.16,0-.27,0-.27.27-.27,1.5,0,2.99,0,4.49,0,1.02,0,2.25.7,2.67,1.83.38,1.03.26,2.44-.68,3.29-.55.49-1.19.77-1.93.78-.92.01-1.84,0-2.76,0-.05,0-.11,0-.16,0-.27,0-.27,0-.27.27,0,1.06,0,2.12,0,3.17,0,.06,0,.13,0,.19,0,.21,0,.21-.22.21-.37,0-.75,0-1.12,0-.27,0-.27,0-.27-.26,0-.78,0-1.55,0-2.33,0-.77,0-1.53,0-2.3Zm3.21-.62c.4,0,.8,0,1.2,0,.16,0,.33-.01.49-.04.87-.14,1.34-1.1.89-1.86-.26-.44-.64-.69-1.17-.69-.94,0-1.88,0-2.81,0-.19,0-.2,0-.2.2,0,.73,0,1.46,0,2.19,0,.19,0,.2.21.2.46,0,.93,0,1.39,0Z"/>
        <path d="m87.93,7.64c0-1.51,0-3.01,0-4.52,0-.07,0-.15,0-.22,0-.11.05-.14.15-.14.44,0,.88,0,1.31,0,.11,0,.17.04.17.16,0,.07,0,.15,0,.22,0,2.46,0,4.93,0,7.39,0,.38-.04.34.34.34,1.56,0,3.12,0,4.68,0,.32,0,.31-.04.31.31,0,.38,0,.77,0,1.15,0,.14-.03.21-.18.19-.08,0-.16,0-.25,0-2.04,0-4.09,0-6.13,0-.06,0-.13,0-.19,0-.2,0-.2,0-.2-.2,0-.3,0-.6,0-.9,0-1.26,0-2.52,0-3.78Z"/>
        <path d="m73.48,8.48c0,1.22,0,2.44,0,3.67,0,.06,0,.13,0,.19.01.13-.04.18-.17.18-.43,0-.86,0-1.29,0-.12,0-.16-.05-.16-.16,0-.08,0-.16,0-.25,0-2.45,0-4.91,0-7.36,0-.35.02-.33-.32-.33-.7,0-1.4,0-2.11,0-.25,0-.25,0-.26-.26,0-.38,0-.77,0-1.15,0-.25,0-.25.26-.25.88,0,1.75,0,2.63,0,1.24,0,2.48,0,3.72,0,.05,0,.09,0,.14,0,.24,0,.24,0,.24.24,0,.4,0,.8,0,1.2,0,.2,0,.21-.22.21-.7,0-1.4,0-2.11,0-.07,0-.15,0-.22,0-.1,0-.15.05-.14.15,0,.06,0,.13,0,.19,0,1.24,0,2.48,0,3.72Z"/>
        <path d="m16.93,0c.02.09-.01.13-.04.16-.38.54-.76,1.07-1.14,1.61-.05.07-.1.16-.21.16-.44,0-.89,0-1.33,0-.04-.11.02-.16.06-.22.28-.5.56-1,.83-1.51C15.18.06,15.27,0,15.43,0c.5,0,1,0,1.5,0Z"/>
      </g>
    </g>
  </g>
</svg>