<?xml version="1.0" encoding="UTF-8"?>
<svg id="Layer_2" data-name="Layer 2" xmlns="http://www.w3.org/2000/svg" viewBox="0 0 84.19 10.6">
  <g id="Capa_1" data-name="Capa 1">
    <g id="ji2v3S">
      <g>
        <path d="m82.62,4.87c-.2.27-.39.51-.57.76-.73.98-1.46,1.96-2.2,2.94-.19.26-.16.25-.34,0-.86-1.17-1.73-2.34-2.59-3.51-.05-.06-.08-.14-.16-.19-.06.08-.03.17-.03.26,0,1.63,0,3.26,0,4.89,0,.37.04.32-.31.32-.33,0-.66,0-1,0-.21,0-.21,0-.21-.22,0-.02,0-.04,0-.07,0-3.23,0-6.46,0-9.7,0-.08-.01-.16.03-.28.32.41.6.82.9,1.21.3.4.59.81.89,1.21.3.4.59.81.89,1.21.3.4.59.81.89,1.21.3.4.59.81.9,1.23,1.49-2.04,2.97-4.05,4.44-6.06.02,0,.03,0,.05.01v.17c0,3.27,0,6.54,0,9.81,0,.04,0,.07,0,.11,0,.09-.03.14-.13.14-.43,0-.86,0-1.28,0-.09,0-.12-.04-.12-.12,0-.06,0-.12,0-.18,0-1.65,0-3.29,0-4.94,0-.07.02-.15-.04-.25Z"/>
        <path d="m14.79,10.6c-2.91,0-5.27-2.4-5.26-5.34C9.54,2.36,11.93,0,14.84,0c2.89,0,5.24,2.39,5.23,5.3,0,2.94-2.37,5.31-5.28,5.3Zm-3.72-5.3c-.03,2.06,1.68,3.79,3.75,3.78,2.05-.01,3.73-1.69,3.73-3.76,0-2.1-1.69-3.79-3.79-3.77-2.18.02-3.72,1.85-3.69,3.75Z"/>
        <path d="m67.95,10.6c-2.88,0-5.26-2.34-5.27-5.3C62.68,2.37,65.07,0,67.99,0c2.89.01,5.24,2.41,5.23,5.33-.01,2.91-2.38,5.28-5.27,5.27Zm0-1.52c2.07,0,3.76-1.68,3.76-3.76,0-2.07-1.67-3.76-3.72-3.77-2.07,0-3.74,1.66-3.77,3.73-.02,2.06,1.66,3.81,3.73,3.8Z"/>
        <path d="m29.19,10.31c-.05.04-.11.02-.17.02-.47,0-.94,0-1.42,0-.15,0-.22-.05-.3-.17-.69-1.06-1.4-2.12-2.09-3.18-.09-.14-.18-.2-.35-.19-.35.01-.71,0-1.06,0-.19,0-.2,0-.2.19,0,.58,0,1.17,0,1.75,0,.47,0,.94,0,1.42,0,.17,0,.18-.17.18-.4,0-.8,0-1.2,0-.16,0-.16,0-.17-.16,0-.04,0-.07,0-.11,0-3.17,0-6.35,0-9.52,0-.32-.04-.29.3-.29,1.02,0,2.04,0,3.05,0,1.37-.01,2.29.66,2.85,1.86.63,1.36.27,3.01-.83,3.99-.17.15-.35.28-.54.38-.13.08-.14.08-.05.21.4.6.79,1.21,1.19,1.81.36.54.71,1.08,1.07,1.63.03.05.09.1.08.17ZM24.67,1.76c-.29,0-.58,0-.86,0-.19,0-.19,0-.19.2,0,1.04,0,2.08,0,3.12,0,.19,0,.19.18.19.56,0,1.12,0,1.68,0,.31,0,.59-.1.84-.29.64-.47.88-1.38.59-2.15-.22-.58-.78-1.1-1.55-1.07-.23,0-.46,0-.69,0Z"/>
        <path d="m61.64,10.3c-.06.05-.13.03-.19.03-.46,0-.93,0-1.39,0-.15,0-.24-.05-.32-.18-.69-1.06-1.4-2.12-2.09-3.18-.09-.13-.18-.19-.34-.19-.36.01-.72,0-1.08,0-.19,0-.19,0-.19.2,0,.99,0,1.98,0,2.97,0,.04,0,.09,0,.13,0,.24,0,.24-.24.24-.38,0-.75,0-1.13,0-.11,0-.16-.04-.15-.15,0-.04,0-.07,0-.11,0-3.18,0-6.36,0-9.54,0-.31-.03-.28.29-.28,1.01,0,2.02.03,3.03,0,1.56-.05,2.62,1.02,3,2.19.47,1.45-.04,3.05-1.26,3.9-.08.06-.17.12-.26.16-.1.05-.1.1-.04.18.24.35.47.71.71,1.07.53.79,1.05,1.59,1.58,2.38.03.05.09.1.09.18Zm-5.6-6.78c0,.52,0,1.03,0,1.55,0,.2,0,.2.19.2.55,0,1.11,0,1.66,0,.34,0,.64-.11.9-.32.64-.5.86-1.45.5-2.21-.29-.63-.78-.98-1.5-.98-.52,0-1.05,0-1.57,0-.18,0-.18,0-.19.18,0,.52,0,1.05,0,1.57Z"/>
        <path d="m.05.11c1.97,2.17,3.93,4.35,5.92,6.54.05-.11.03-.2.03-.28,0-1.93,0-3.87,0-5.8,0-.36-.02-.3.31-.31.35,0,.69,0,1.04,0,.17,0,.17,0,.18.17,0,.04,0,.07,0,.11,0,3.24,0,6.48,0,9.72,0,.09,0,.19,0,.28-.02,0-.03.01-.05.02-1.97-2.16-3.94-4.33-5.91-6.49-.02,0-.03.01-.05.02,0,.08,0,.16,0,.23,0,1.92,0,3.84,0,5.76,0,.31.01.27-.28.27-.34,0-.68,0-1.02,0-.22,0-.22,0-.22-.21,0-.03,0-.06,0-.09,0-3.23,0-6.45,0-9.68C0,.29,0,.21,0,.13c.02,0,.03-.02.05-.02Z"/>
        <path d="m31.16,5.29c0-1.59,0-3.17,0-4.76,0-.31,0-.27.26-.27.69,0,1.39,0,2.08,0,1.37-.02,2.46.55,3.3,1.59.86,1.07,1.22,2.31,1.17,3.67-.04,1.09-.35,2.09-.98,2.99-.67.94-1.55,1.57-2.7,1.78-.22.04-.45.06-.68.06-.74,0-1.48,0-2.21,0-.25,0-.25,0-.25-.26,0-1.6,0-3.2,0-4.8Zm1.51,0c0,1.1,0,2.2,0,3.3,0,.06,0,.12,0,.18,0,.11.04.14.14.14.28,0,.56,0,.84,0,.25,0,.48-.04.72-.12.61-.2,1.07-.59,1.42-1.11.41-.6.63-1.27.68-1.99.07-.94-.1-1.84-.62-2.64-.4-.63-.94-1.07-1.68-1.26-.47-.12-.94-.05-1.41-.07-.06,0-.1.03-.1.09,0,.06,0,.12,0,.18,0,1.1,0,2.2,0,3.3Z"/>
        <path d="m44.57,1.32c-.39.26-.78.53-1.18.8-.04-.04-.07-.08-.1-.11-.3-.35-.7-.49-1.15-.45-.67.05-1.05.58-.93,1.24.08.43.31.76.62,1.04.29.25.58.5.87.76.32.29.67.56.97.87.48.49.86,1.05,1.03,1.73.27,1.07-.14,2.15-1.04,2.78-1.22.85-2.89.65-3.87-.48-.22-.26-.4-.55-.54-.86-.04-.08-.04-.15.06-.19.36-.17.72-.34,1.08-.52.08-.04.13-.02.17.06.11.22.25.42.41.6.34.36.76.51,1.24.48.58-.04,1.06-.56,1.1-1.17.03-.38-.08-.73-.3-1.04-.13-.18-.28-.34-.45-.49-.51-.45-1.02-.89-1.53-1.34-.47-.41-.9-.86-1.13-1.45-.37-.94-.3-1.83.37-2.61.5-.58,1.17-.84,1.93-.85.91-.02,1.65.37,2.27,1.03.04.05.09.1.11.19Z"/>
        <path d="m50.09,6.01c0,1.35,0,2.7,0,4.05,0,.06,0,.12,0,.18,0,.09-.04.12-.12.12-.45,0-.9,0-1.35,0-.09,0-.12-.04-.12-.12,0-.07,0-.13,0-.2,0-2.69,0-5.39,0-8.08,0-.3.04-.28-.27-.28-.64,0-1.28,0-1.93,0-.21,0-.21,0-.21-.21,0-.34,0-.68,0-1.02,0-.18,0-.19.18-.19.32,0,.65,0,.97,0,1.65,0,3.29,0,4.94,0,.04,0,.07,0,.11,0,.19,0,.19,0,.19.2,0,.34,0,.68,0,1.02,0,.19,0,.2-.2.2-.62,0-1.24,0-1.86,0-.05,0-.1,0-.15,0-.19,0-.19,0-.19.2,0,1.38,0,2.76,0,4.14Z"/>
      </g>
    </g>
  </g>
</svg>