<?xml version="1.0" encoding="UTF-8"?>
<svg id="Layer_2" data-name="Layer 2" xmlns="http://www.w3.org/2000/svg" viewBox="0 0 47.66 13.08">
  <g id="Capa_1" data-name="Capa 1">
    <g id="iQfIrk">
      <path d="m23.85,11.92c-1.15,1.25-2.99,1.53-4.46.63-.34-.21-.57-.24-.9-.03-.34.22-.75.29-1.17.29-1.35,0-2.69,0-4.04,0-.11,0-.28.06-.27-.16,0-.22.18-.13.29-.14.17-.01.34-.02.5,0,.24.02.3-.09.3-.31,0-1.89,0-3.78,0-5.67,0-.26-.01-.51-.08-.76-.19-.71-.79-1.03-1.49-.77-.86.31-1.57,1.34-1.58,2.32-.01,1.64,0,3.29-.01,4.93,0,.22.09.27.28.27.22,0,.44,0,.65,0,.11,0,.19.02.19.16,0,.15-.1.14-.2.14-1.45,0-2.89,0-4.34,0-.11,0-.22,0-.22-.16,0-.18.13-.14.23-.15.26-.02.62.12.76-.07.13-.17.05-.51.05-.78,0-3.53,0-7.07,0-10.6,0-.13,0-.24-.17-.23-.63.03-1.27-.05-1.9.05-.05,0-.1.02-.15.03-1.08.25-1.47,1.16-.9,2.11.14.24.31.46.47.68.18.25.27.53.26.83,0,.72,0,1.45,0,2.17,0,.09.04.21-.11.23-.13.02-.22-.02-.28-.16-.19-.45-.41-.88-.71-1.26-.8-1.05-2.55-1.26-3.43-.4-.68.66-.46,1.62.44,1.88.76.22,1.56.24,2.34.4.54.11,1.08.23,1.56.55.4.27.65.63.78,1.08.62,2.25-1.22,4.33-3.54,4-.38-.05-.75-.16-1.12-.28-.27-.09-.55-.16-.84-.13-.23.03-.45.1-.57.33-.08.14-.2.12-.31.11-.14-.02-.1-.15-.1-.24,0-.89,0-1.78,0-2.67,0-.1-.03-.23.14-.24.16-.02.23.06.27.2.31.94.86,1.71,1.7,2.25.88.56,2.05.53,2.75-.06.4-.33.58-.76.55-1.28-.02-.43-.24-.7-.64-.83-.62-.21-1.28-.23-1.93-.32-.57-.08-1.14-.17-1.66-.44C.26,8.88-.13,7.91.04,6.72c.26-1.76,1.96-2.88,3.95-2.31.32.09.64.21.97.26.21.03.43.07.57-.13.15-.21.06-.42-.06-.61-.18-.3-.38-.58-.55-.88-.37-.64-.35-1.34.06-1.83.32-.38.76-.59,1.26-.65.95-.12,1.9-.03,2.85-.06.23,0,.46,0,.68-.03.4-.05.8-.11,1.16-.48v5.96c.13,0,.13-.09.16-.14.87-1.4,2.88-2,4.37-1.28.79.38,1.08,1.09,1.17,1.91.13,1.14.05,2.29.06,3.44.01.78,0,1.56,0,2.35,0,.16.02.27.22.27.55.02,1.08-.04,1.58-.32.2-.11.25-.2.13-.43-.45-.86-.3-1.93.36-2.58.5-.5,1.16-.7,1.84-.83.92-.18,1.87-.19,2.8-.29.16-.02.23-.06.22-.23-.01-.65.03-1.31-.03-1.96-.08-.85-.52-1.25-1.38-1.26-.21,0-.42,0-.62,0-.17,0-.21.06-.12.22.19.35.33.72.4,1.11.14.81-.4,1.57-1.24,1.74-.72.15-1.47-.36-1.63-1.12-.11-.51.04-.96.41-1.33.51-.51,1.14-.78,1.84-.88,1.2-.17,2.37-.11,3.49.4.91.41,1.36,1.14,1.37,2.14,0,1.66.03,3.33,0,4.99-.02.84.43.95,1.11.82.17-.03.32-.11.47-.18.45-.22.7-.55.64-1.08-.04-.37-.02-.75,0-1.13,0-.14-.12-.36.14-.41.25-.05.24.19.29.33.38.99.97,1.79,1.94,2.26.81.39,1.61.37,2.37-.13.45-.29.65-.73.67-1.26.02-.47-.2-.78-.66-.94-.6-.21-1.24-.22-1.87-.31-.39-.06-.78-.12-1.16-.23-1.43-.41-1.96-1.52-1.78-2.88.21-1.6,1.63-2.63,3.27-2.46.47.05.94.15,1.39.31.51.18.88.07,1.26-.34.72-.77,1.62-1.15,2.7-1,.6.08,1.13.34,1.55.75.3.3.61.34,1,.31.96-.07,1.92.01,2.82.39.72.3,1.25.79,1.43,1.58.05.2.18.2.33.21.66.04,1.29.18,1.87.5.96.54,1.42,1.41,1.53,2.47.11,1.1-.09,2.11-.98,2.88-.55.47-1.2.67-1.91.71-.41.02-.83.02-1.25,0-.78-.03-1.45-.31-1.87-1.01-.06-.1-.1-.17-.21-.04-.74.91-1.75,1.08-2.83,1.02-.51-.03-.99-.15-1.44-.41-.73-.41-1.08-1.04-1.09-1.87,0-.86.35-1.51,1.09-1.94.66-.38,1.39-.5,2.13-.58.66-.07,1.32-.13,1.98-.17.2-.01.25-.1.24-.28,0-.56,0-1.13-.01-1.69-.02-1.03-.48-1.48-1.5-1.49-.18,0-.36,0-.53,0-.18,0-.2.06-.12.21.24.44.42.9.41,1.41-.01.65-.46,1.24-1.07,1.4-.67.17-1.31-.07-1.64-.63-.35-.6-.26-1.25.23-1.77.31-.33.69-.56,1.12-.7.27-.09.22-.16.05-.32-1.1-1.01-2.72-.94-3.72.16-.19.21-.31.46-.32.75,0,.51-.01,1.03-.02,1.54,0,.09.06.23-.12.26-.14.02-.2-.06-.26-.19-.29-.67-.63-1.3-1.23-1.74-.73-.54-2-.56-2.74-.04-.33.23-.5.56-.53.95-.04.45.13.76.54.96.55.26,1.15.28,1.73.37.53.08,1.06.15,1.57.3,1.16.33,1.68.97,1.76,2.16.13,1.98-1.65,3.6-3.61,3.32-.7-.1-1.35-.31-1.96-.63-.41-.21-.77-.2-1.11.12-.31.29-.7.46-1.12.5-.63.05-1.27.08-1.89-.02-.63-.1-1.12-.42-1.44-.98-.03-.04-.05-.09-.1-.1Zm20.13-2.38h0c0,.83,0,1.66,0,2.49,0,.51.2.7.7.7.77,0,1.43-.28,1.96-.84.79-.82.94-2.44.34-3.57-.57-1.06-1.56-1.41-2.69-1.52-.25-.02-.33.04-.32.3.01.81,0,1.62,0,2.43Zm-2.48.12s.02,0,.03,0c0-.36,0-.71,0-1.07,0-.13,0-.26-.18-.23-.61.09-1.24.07-1.85.25-.42.12-.69.41-.76.82-.12.69-.13,1.39.03,2.08.11.47.36.84.87.94.53.11,1,0,1.36-.44.3-.35.47-.76.5-1.21.02-.38,0-.77,0-1.15Zm-17.65-.01c0-.39,0-.72,0-1.06,0-.16-.05-.25-.22-.23-.54.06-1.08.11-1.62.2-.56.09-.9.43-.99.99-.1.64-.09,1.28.04,1.91.1.5.37.9.92,1,.59.11,1.07-.07,1.43-.56.21-.29.33-.62.39-.98.08-.44.03-.89.05-1.28Z"/>
    </g>
  </g>
</svg>