<?xml version="1.0" encoding="UTF-8"?>
<svg id="Layer_2" data-name="Layer 2" xmlns="http://www.w3.org/2000/svg" viewBox="0 0 64.82 13.4">
  <g id="Capa_1" data-name="Capa 1">
    <g id="MI8fJ0">
      <g>
        <path d="m12.97,4.64c.48-.27.81-.49,1.16-.66,1.69-.76,3.04-.12,3.18,1.71.17,2.27.1,4.55.13,6.83,0,.26-.04.48-.31.62-1.4.71-2.87-.17-2.88-1.71,0-1.32,0-2.63-.07-3.95-.03-.45.05-1.19-.64-1.18-.67.01-.6.69-.6,1.19.02,1.52,0,3.04.09,4.56.05.85-.17,1.16-1.08,1.13-2.67-.07-2.18.32-2.21-2.09-.04-3.24.18-6.49-.19-9.71-.16-1.38.88-1,1.46-1.15,1.84-.46,1.85-.42,1.84,1.48,0,.81,0,1.62.01,2.43,0,.1.03.2.09.49Z"/>
        <path d="m19.64,6.41c-.07-2.31.1-2.52,2.35-2.67.8-.05,1.62-.11,2.41.12,1.17.34,1.78,1.13,1.8,2.33.05,2.07.04,4.15.09,6.22.02.61-.24.88-.79.77-.79-.15-1.71.45-2.38-.37-.26-.33-.42-.02-.61.05-1.82.66-2.85.38-3.47-.94-.68-1.45-.15-3.35,1.19-4.14.65-.38,1.37-.62,2.13-.75.32-.06.77-.1.7-.61-.06-.41-.42-.53-.79-.59-.95-.15-1.77.27-2.63.59Zm3.5,3.31c-.13-.33.3-1.01-.38-1.05-.7-.04-1.05.52-1.07,1.21-.02.56.22,1.06.84,1.03.71-.04.62-.66.62-1.19Z"/>
        <path d="m2.47,8.34c0-1.26-.06-2.53.02-3.79.06-.95-.26-1.3-1.19-1.16C.52,3.5-.07,3.46,0,2.35c.06-.92.09-1.5,1.29-1.45,2.02.09,4.04,0,6.07-.01.58,0,1.22-.07,1.01.82-.15.65.39,1.84-1.06,1.63-1.15-.17-1.5.28-1.45,1.42.09,2.32-.03,4.66.1,6.97.07,1.26-.33,1.64-1.5,1.46-.25-.04-.51-.03-.76,0-.95.14-1.37-.18-1.29-1.22.09-1.21.02-2.43.02-3.64h.03Z"/>
        <path d="m28.37,8.77c-.15-1.01.49-2.22-.75-3.09-.22-.15-.12-1.33.08-1.4,1.42-.54-.09-2.94,2.16-3.06,1.73-.1,1.7-.39,1.7,1.33,0,.66-.31,1.45.9,1.48.5.01.49,1.89-.07,1.98-1.1.19-.87.92-.89,1.58-.02.76-.03,1.52.02,2.27.03.49.1,1.1.75,1.16,1.11.1.5.9.57,1.38.1.68-.41.79-.97.85-2.47.27-3.39-.47-3.5-2.91-.02-.5,0-1.01,0-1.56Z"/>
        <path d="m56,8.83c-.31-.9.71-2.29-.83-3.02-.03-.01-.04-.09-.04-.14.03-.54-.15-1.12.2-1.62.88-1.26.96-3.32,3.28-3.1.83.08.43.62.53.98.21.77-.64,1.98,1.04,2.19.27.03.51,1.66-.24,1.89-.98.3-.8.87-.82,1.48-.02.76-.02,1.52,0,2.28.01.52.07,1.13.68,1.22,1.17.17.58.95.6,1.5.03.87-.66.73-1.18.76-2.47.14-3.18-.54-3.2-3.05,0-.41,0-.81,0-1.37Z"/>
        <path d="m44.8,6.15c-.66-.27-.88-.39-1.11-.44-.59-.13-1.29-.37-1.61.34-.31.68.36.96.8,1.26.84.57,1.72,1.1,1.94,2.2.26,1.3-.05,2.41-1.16,3.21-.86.62-3.69.81-4.39.27-.79-.61-.1-1.42-.48-2.28.49.19.72.27.94.37.69.31,1.48.53,1.87-.25.36-.71-.46-.99-.93-1.33-1.76-1.24-2.32-2.85-1.51-4.38.67-1.28,3.13-1.97,4.78-1.34,1.2.47.21,1.41.85,2.34Z"/>
        <path d="m54,8.8c.04.9.05,2.11.16,3.32.07.75-.05,1.07-.92,1.08-2.48.05-2.46.1-2.45-2.44,0-1.81.02-3.63-.13-5.44-.07-.89.04-1.22,1.01-1.32,2.35-.24,2.34-.31,2.32,2.07,0,.81,0,1.61,0,2.73Z"/>
        <path d="m34.97,4.99c-.83.16-1.12-.12-.83-.95.2-.57.47-1.16.46-1.74-.04-1.81,1.06-1.96,2.45-1.91.79.03.8.28.52.91-.42.91-.78,1.85-1.12,2.79-.26.73-.71,1.06-1.48.9Z"/>
        <path d="m53.83,1.3c.22,2.1-1.44,1.46-2.37,1.6-1.18.18-.59-.88-.62-1.35-.15-2.07,1.64-1.02,2.49-1.32.87-.31.31.75.5,1.08Z"/>
        <path d="m63.46,13.1c-1.22.3-1.36-.35-1.42-1.39-.08-1.3.62-1.29,1.55-1.36,1.23-.1,1.19.61,1.23,1.49.05,1.05-.27,1.53-1.36,1.27Z"/>
      </g>
    </g>
  </g>
</svg>